<svg xmlns="http://www.w3.org/2000/svg" width="700" height="500" font-family="DejaVu Sans, Liberation Sans, Arial, sans-serif" fill="black"><rect width="100%" height="100%" fill="white" /><line x1="59" y1="449" x2="549" y2="449" stroke="#000000" stroke-width="1" /><line x1="59" y1="44" x2="59" y2="449" stroke="#000000" stroke-width="1" /><line x1="181.5" y1="44" x2="181.5" y2="449" stroke="#cccccc" stroke-width="1" /><line x1="304" y1="44" x2="304" y2="449" stroke="#cccccc" stroke-width="1" /><line x1="426.5" y1="44" x2="426.5" y2="449" stroke="#cccccc" stroke-width="1" /><line x1="549" y1="44" x2="549" y2="449" stroke="#cccccc" stroke-width="1" /><line x1="59" y1="318.82" x2="549" y2="318.82" stroke="#cccccc" stroke-width="1" /><line x1="59" y1="246.5" x2="549" y2="246.5" stroke="#cccccc" stroke-width="1" /><line x1="59" y1="174.18" x2="549" y2="174.18" stroke="#cccccc" stroke-width="1" /><line x1="59" y1="101.86" x2="549" y2="101.86" stroke="#cccccc" stroke-width="1" /><line x1="59" y1="449" x2="59" y2="454" stroke="#000000" stroke-width="1" /><text x="59" y="466" font-size="12" text-anchor="middle">0</text><line x1="181.5" y1="449" x2="181.5" y2="454" stroke="#000000" stroke-width="1" /><text x="181.5" y="466" font-size="12" text-anchor="middle">10</text><line x1="304" y1="449" x2="304" y2="454" stroke="#000000" stroke-width="1" /><text x="304" y="466" font-size="12" text-anchor="middle">20</text><line x1="426.5" y1="449" x2="426.5" y2="454" stroke="#000000" stroke-width="1" /><text x="426.5" y="466" font-size="12" text-anchor="middle">30</text><line x1="549" y1="449" x2="549" y2="454" stroke="#000000" stroke-width="1" /><text x="549" y="466" font-size="12" text-anchor="middle">40</text><line x1="54" y1="391.14" x2="59" y2="391.14" stroke="#000000" stroke-width="1" /><text x="51" y="395.34000000000003" font-size="12" text-anchor="end">-0</text><line x1="54" y1="318.82" x2="59" y2="318.82" stroke="#000000" stroke-width="1" /><text x="51" y="323.02" font-size="12" text-anchor="end">0.25</text><line x1="54" y1="246.5" x2="59" y2="246.5" stroke="#000000" stroke-width="1" /><text x="51" y="250.70000000000002" font-size="12" text-anchor="end">0.5</text><line x1="54" y1="174.18" x2="59" y2="174.18" stroke="#000000" stroke-width="1" /><text x="51" y="178.38" font-size="12" text-anchor="end">0.75</text><line x1="54" y1="101.86" x2="59" y2="101.86" stroke="#000000" stroke-width="1" /><text x="51" y="106.06" font-size="12" text-anchor="end">1</text><text x="304" y="493" font-size="14" text-anchor="middle">r  [h^-1 Mpc]</text><text x="15" y="250" font-size="14" text-anchor="middle" transform="rotate(-90,15,250)">CDF_k(r)</text><text x="304" y="22" font-size="18" text-anchor="middle">kNN-CDF: Random Catalog vs Erlang</text><path d="M 63.410000000000004 101.86 L 67.82000000000001 101.86 L 72.23 101.86 L 76.64 101.86 L 81.05 101.86 L 85.45 101.86 L 89.86 101.86 L 94.27 101.86 L 98.68 101.86 L 103.09 101.86 L 107.5 101.86 L 111.91 101.86 L 116.32000000000001 101.86 L 120.73 101.86 L 125.14 101.86 L 129.55 101.86 L 133.95 101.86 L 138.36 101.86 L 142.77 101.86 L 147.18 101.86 L 151.59 101.86 L 156.0 101.86 L 160.41 101.86 L 164.82 101.86 L 169.23 101.86 L 173.64000000000001 101.86 L 178.05 101.86 L 182.45000000000002 101.86 L 186.86 101.86 L 191.27 101.86 L 195.68 101.86 L 200.09 101.86 L 204.5 101.86 L 208.91 101.86 L 213.32 101.86 L 217.73000000000002 101.86 L 222.14000000000001 101.86 L 226.55 101.86 L 230.95000000000002 101.86 L 235.36 101.86 L 239.77 101.86 L 244.18 101.86 L 248.59 101.86 L 253.0 101.86 L 257.41 101.86 L 261.82 101.86 L 266.23 101.86 L 270.64 101.86 L 275.05 101.86 L 279.45 101.86 L 283.86 101.86 L 288.27 101.86 L 292.68 101.86 L 297.09000000000003 101.86 L 301.5 101.86 L 305.91 101.86 L 310.32 101.86 L 314.73 101.86 L 319.14 101.86 L 323.55 101.86 L 327.96 101.86 L 332.36 101.86 L 336.77 101.86 L 341.18 101.86 L 345.59000000000003 101.86 L 350.0 101.86 L 354.41 101.86 L 358.82 101.86 L 363.23 101.86 L 367.64 101.86 L 372.05 101.86 L 376.46 101.86 L 380.86 101.86 L 385.27 101.86 L 389.68 101.86 L 394.09000000000003 101.86 L 398.5 101.86 L 402.91 101.86 L 407.32 101.86 L 411.73 101.86 L 416.14 101.86 L 420.55 101.86 L 424.96000000000004 101.86 L 429.36 101.86 L 433.77 101.86 L 438.18 101.86 L 442.59000000000003 101.86 L 447.0 101.86 L 451.41 101.86 L 455.82 101.86 L 460.23 101.86 L 464.64 101.86 L 469.05 101.86 L 473.46000000000004 101.86 L 477.86 101.86 L 482.27 101.86 L 486.68 101.86 L 491.09000000000003 101.86 L 495.5 101.86 L 499.91 101.86 " stroke="#4682b4" stroke-width="2" fill="none" /><path d="M 63.410000000000004 391.1 L 67.82000000000001 390.78000000000003 L 72.23 389.93 L 76.64 388.26 L 81.05 385.55 L 85.45 381.54 L 89.86 376.05 L 94.27 368.90000000000003 L 98.68 360.0 L 103.09 349.3 L 107.5 336.82 L 111.91 322.69 L 116.32000000000001 307.09000000000003 L 120.73 290.28000000000003 L 125.14 272.59000000000003 L 129.55 254.4 L 133.95 236.11 L 138.36 218.16 L 142.77 200.91 L 147.18 184.74 L 151.59 169.92000000000002 L 156.0 156.66 L 160.41 145.08 L 164.82 135.22 L 169.23 127.04 L 173.64000000000001 120.42 L 178.05 115.21000000000001 L 182.45000000000002 111.23 L 186.86 108.26 L 191.27 106.11 L 195.68 104.61 L 200.09 103.59 L 204.5 102.91 L 208.91 102.48 L 213.32 102.21000000000001 L 217.73000000000002 102.05 L 222.14000000000001 101.96000000000001 L 226.55 101.91 L 230.95000000000002 101.88 L 235.36 101.87 L 239.77 101.86 L 244.18 101.86 L 248.59 101.86 L 253.0 101.86 L 257.41 101.86 L 261.82 101.86 L 266.23 101.86 L 270.64 101.86 L 275.05 101.86 L 279.45 101.86 L 283.86 101.86 L 288.27 101.86 L 292.68 101.86 L 297.09000000000003 101.86 L 301.5 101.86 L 305.91 101.86 L 310.32 101.86 L 314.73 101.86 L 319.14 101.86 L 323.55 101.86 L 327.96 101.86 L 332.36 101.86 L 336.77 101.86 L 341.18 101.86 L 345.59000000000003 101.86 L 350.0 101.86 L 354.41 101.86 L 358.82 101.86 L 363.23 101.86 L 367.64 101.86 L 372.05 101.86 L 376.46 101.86 L 380.86 101.86 L 385.27 101.86 L 389.68 101.86 L 394.09000000000003 101.86 L 398.5 101.86 L 402.91 101.86 L 407.32 101.86 L 411.73 101.86 L 416.14 101.86 L 420.55 101.86 L 424.96000000000004 101.86 L 429.36 101.86 L 433.77 101.86 L 438.18 101.86 L 442.59000000000003 101.86 L 447.0 101.86 L 451.41 101.86 L 455.82 101.86 L 460.23 101.86 L 464.64 101.86 L 469.05 101.86 L 473.46000000000004 101.86 L 477.86 101.86 L 482.27 101.86 L 486.68 101.86 L 491.09000000000003 101.86 L 495.5 101.86 L 499.91 101.86 " stroke="#000000" stroke-width="1" fill="none" stroke-dasharray="8 4" /><path d="M 63.410000000000004 391.11 L 67.82000000000001 390.85 L 72.23 390.04 L 76.64 388.19 L 81.05 385.62 L 85.45 381.8 L 89.86 375.78000000000003 L 94.27 368.58 L 98.68 360.19 L 103.09 349.72 L 107.5 337.36 L 111.91 322.26 L 116.32000000000001 306.79 L 120.73 289.92 L 125.14 272.56 L 129.55 254.17000000000002 L 133.95 235.88 L 138.36 218.15 L 142.77 200.71 L 147.18 184.68 L 151.59 169.52 L 156.0 156.18 L 160.41 144.87 L 164.82 135.33 L 169.23 127.29 L 173.64000000000001 120.31 L 178.05 114.9 L 182.45000000000002 111.66 L 186.86 108.97 L 191.27 106.63 L 195.68 104.75 L 200.09 103.82000000000001 L 204.5 103.19 L 208.91 102.67 L 213.32 102.35000000000001 L 217.73000000000002 102.15 L 222.14000000000001 102.03 L 226.55 101.94 L 230.95000000000002 101.91 L 235.36 101.89 L 239.77 101.86 L 244.18 101.86 L 248.59 101.86 L 253.0 101.86 L 257.41 101.86 L 261.82 101.86 L 266.23 101.86 L 270.64 101.86 L 275.05 101.86 L 279.45 101.86 L 283.86 101.86 L 288.27 101.86 L 292.68 101.86 L 297.09000000000003 101.86 L 301.5 101.86 L 305.91 101.86 L 310.32 101.86 L 314.73 101.86 L 319.14 101.86 L 323.55 101.86 L 327.96 101.86 L 332.36 101.86 L 336.77 101.86 L 341.18 101.86 L 345.59000000000003 101.86 L 350.0 101.86 L 354.41 101.86 L 358.82 101.86 L 363.23 101.86 L 367.64 101.86 L 372.05 101.86 L 376.46 101.86 L 380.86 101.86 L 385.27 101.86 L 389.68 101.86 L 394.09000000000003 101.86 L 398.5 101.86 L 402.91 101.86 L 407.32 101.86 L 411.73 101.86 L 416.14 101.86 L 420.55 101.86 L 424.96000000000004 101.86 L 429.36 101.86 L 433.77 101.86 L 438.18 101.86 L 442.59000000000003 101.86 L 447.0 101.86 L 451.41 101.86 L 455.82 101.86 L 460.23 101.86 L 464.64 101.86 L 469.05 101.86 L 473.46000000000004 101.86 L 477.86 101.86 L 482.27 101.86 L 486.68 101.86 L 491.09000000000003 101.86 L 495.5 101.86 L 499.91 101.86 " stroke="#dc143c" stroke-width="2" fill="none" /><path d="M 63.410000000000004 391.14 L 67.82000000000001 391.14 L 72.23 391.14 L 76.64 391.13 L 81.05 391.09000000000003 L 85.45 390.98 L 89.86 390.74 L 94.27 390.27 L 98.68 389.40000000000003 L 103.09 387.96000000000004 L 107.5 385.69 L 111.91 382.32 L 116.32000000000001 377.54 L 120.73 371.06 L 125.14 362.62 L 129.55 352.02 L 133.95 339.18 L 138.36 324.13 L 142.77 307.08 L 147.18 288.34000000000003 L 151.59 268.4 L 156.0 247.83 L 160.41 227.24 L 164.82 207.28 L 169.23 188.51 L 173.64000000000001 171.4 L 178.05 156.29 L 182.45000000000002 143.36 L 186.86 132.66 L 191.27 124.08 L 195.68 117.42 L 200.09 112.44 L 204.5 108.83 L 208.91 106.3 L 213.32 104.60000000000001 L 217.73000000000002 103.49000000000001 L 222.14000000000001 102.8 L 226.55 102.38 L 230.95000000000002 102.14 L 235.36 102.0 L 239.77 101.93 L 244.18 101.89 L 248.59 101.87 L 253.0 101.86 L 257.41 101.86 L 261.82 101.86 L 266.23 101.86 L 270.64 101.86 L 275.05 101.86 L 279.45 101.86 L 283.86 101.86 L 288.27 101.86 L 292.68 101.86 L 297.09000000000003 101.86 L 301.5 101.86 L 305.91 101.86 L 310.32 101.86 L 314.73 101.86 L 319.14 101.86 L 323.55 101.86 L 327.96 101.86 L 332.36 101.86 L 336.77 101.86 L 341.18 101.86 L 345.59000000000003 101.86 L 350.0 101.86 L 354.41 101.86 L 358.82 101.86 L 363.23 101.86 L 367.64 101.86 L 372.05 101.86 L 376.46 101.86 L 380.86 101.86 L 385.27 101.86 L 389.68 101.86 L 394.09000000000003 101.86 L 398.5 101.86 L 402.91 101.86 L 407.32 101.86 L 411.73 101.86 L 416.14 101.86 L 420.55 101.86 L 424.96000000000004 101.86 L 429.36 101.86 L 433.77 101.86 L 438.18 101.86 L 442.59000000000003 101.86 L 447.0 101.86 L 451.41 101.86 L 455.82 101.86 L 460.23 101.86 L 464.64 101.86 L 469.05 101.86 L 473.46000000000004 101.86 L 477.86 101.86 L 482.27 101.86 L 486.68 101.86 L 491.09000000000003 101.86 L 495.5 101.86 L 499.91 101.86 " stroke="#000000" stroke-width="1" fill="none" stroke-dasharray="8 4" /><path d="M 63.410000000000004 391.14 L 67.82000000000001 391.14 L 72.23 391.14 L 76.64 391.14 L 81.05 391.14 L 85.45 391.14 L 89.86 391.14 L 94.27 391.14 L 98.68 391.11 L 103.09 391.06 L 107.5 390.77 L 111.91 390.33 L 116.32000000000001 389.23 L 120.73 388.02 L 125.14 385.59000000000003 L 129.55 382.44 L 133.95 378.33 L 138.36 371.73 L 142.77 363.6 L 147.18 352.38 L 151.59 338.67 L 156.0 323.97 L 160.41 305.34000000000003 L 164.82 286.28000000000003 L 169.23 264.61 L 173.64000000000001 241.38 L 178.05 220.12 L 182.45000000000002 199.11 L 186.86 179.13 L 191.27 162.4 L 195.68 147.48 L 200.09 135.47 L 204.5 126.16 L 208.91 119.16 L 213.32 113.49000000000001 L 217.73000000000002 109.38 L 222.14000000000001 106.75 L 226.55 104.72 L 230.95000000000002 103.65 L 235.36 102.81 L 239.77 102.38 L 244.18 102.18 L 248.59 101.94 L 253.0 101.89 L 257.41 101.86 L 261.82 101.86 L 266.23 101.86 L 270.64 101.86 L 275.05 101.86 L 279.45 101.86 L 283.86 101.86 L 288.27 101.86 L 292.68 101.86 L 297.09000000000003 101.86 L 301.5 101.86 L 305.91 101.86 L 310.32 101.86 L 314.73 101.86 L 319.14 101.86 L 323.55 101.86 L 327.96 101.86 L 332.36 101.86 L 336.77 101.86 L 341.18 101.86 L 345.59000000000003 101.86 L 350.0 101.86 L 354.41 101.86 L 358.82 101.86 L 363.23 101.86 L 367.64 101.86 L 372.05 101.86 L 376.46 101.86 L 380.86 101.86 L 385.27 101.86 L 389.68 101.86 L 394.09000000000003 101.86 L 398.5 101.86 L 402.91 101.86 L 407.32 101.86 L 411.73 101.86 L 416.14 101.86 L 420.55 101.86 L 424.96000000000004 101.86 L 429.36 101.86 L 433.77 101.86 L 438.18 101.86 L 442.59000000000003 101.86 L 447.0 101.86 L 451.41 101.86 L 455.82 101.86 L 460.23 101.86 L 464.64 101.86 L 469.05 101.86 L 473.46000000000004 101.86 L 477.86 101.86 L 482.27 101.86 L 486.68 101.86 L 491.09000000000003 101.86 L 495.5 101.86 L 499.91 101.86 " stroke="seagreen" stroke-width="2" fill="none" /><path d="M 63.410000000000004 391.14 L 67.82000000000001 391.14 L 72.23 391.14 L 76.64 391.14 L 81.05 391.14 L 85.45 391.14 L 89.86 391.14 L 94.27 391.14 L 98.68 391.14 L 103.09 391.14 L 107.5 391.12 L 111.91 391.09000000000003 L 116.32000000000001 391.02 L 120.73 390.85 L 125.14 390.53000000000003 L 129.55 389.92 L 133.95 388.86 L 138.36 387.09000000000003 L 142.77 384.29 L 147.18 380.07 L 151.59 374.03000000000003 L 156.0 365.73 L 160.41 354.84000000000003 L 164.82 341.14 L 169.23 324.61 L 173.64000000000001 305.48 L 178.05 284.2 L 182.45000000000002 261.49 L 186.86 238.19 L 191.27 215.24 L 195.68 193.52 L 200.09 173.77 L 204.5 156.53 L 208.91 142.08 L 213.32 130.45 L 217.73000000000002 121.48 L 222.14000000000001 114.84 L 226.55 110.13 L 230.95000000000002 106.93 L 235.36 104.85000000000001 L 239.77 103.55 L 244.18 102.78 L 248.59 102.33 L 253.0 102.09 L 257.41 101.97 L 261.82 101.91 L 266.23 101.88 L 270.64 101.87 L 275.05 101.86 L 279.45 101.86 L 283.86 101.86 L 288.27 101.86 L 292.68 101.86 L 297.09000000000003 101.86 L 301.5 101.86 L 305.91 101.86 L 310.32 101.86 L 314.73 101.86 L 319.14 101.86 L 323.55 101.86 L 327.96 101.86 L 332.36 101.86 L 336.77 101.86 L 341.18 101.86 L 345.59000000000003 101.86 L 350.0 101.86 L 354.41 101.86 L 358.82 101.86 L 363.23 101.86 L 367.64 101.86 L 372.05 101.86 L 376.46 101.86 L 380.86 101.86 L 385.27 101.86 L 389.68 101.86 L 394.09000000000003 101.86 L 398.5 101.86 L 402.91 101.86 L 407.32 101.86 L 411.73 101.86 L 416.14 101.86 L 420.55 101.86 L 424.96000000000004 101.86 L 429.36 101.86 L 433.77 101.86 L 438.18 101.86 L 442.59000000000003 101.86 L 447.0 101.86 L 451.41 101.86 L 455.82 101.86 L 460.23 101.86 L 464.64 101.86 L 469.05 101.86 L 473.46000000000004 101.86 L 477.86 101.86 L 482.27 101.86 L 486.68 101.86 L 491.09000000000003 101.86 L 495.5 101.86 L 499.91 101.86 " stroke="#000000" stroke-width="1" fill="none" stroke-dasharray="8 4" /><path d="M 63.410000000000004 391.14 L 67.82000000000001 391.14 L 72.23 391.14 L 76.64 391.14 L 81.05 391.14 L 85.45 391.14 L 89.86 391.14 L 94.27 391.14 L 98.68 391.14 L 103.09 391.14 L 107.5 391.14 L 111.91 391.14 L 116.32000000000001 391.14 L 120.73 391.14 L 125.14 391.14 L 129.55 391.14 L 133.95 391.14 L 138.36 391.14 L 142.77 391.09000000000003 L 147.18 391.06 L 151.59 390.91 L 156.0 390.59000000000003 L 160.41 389.7 L 164.82 388.66 L 169.23 386.66 L 173.64000000000001 384.11 L 178.05 379.6 L 182.45000000000002 373.15000000000003 L 186.86 364.3 L 191.27 351.57 L 195.68 335.31 L 200.09 315.44 L 204.5 293.54 L 208.91 270.57 L 213.32 245.37 L 217.73000000000002 219.6 L 222.14000000000001 197.21 L 226.55 175.8 L 230.95000000000002 156.79 L 235.36 140.42000000000002 L 239.77 128.24 L 244.18 119.65 L 248.59 112.85000000000001 L 253.0 108.60000000000001 L 257.41 105.79 L 261.82 104.29 L 266.23 102.93 L 270.64 102.46000000000001 L 275.05 102.23 L 279.45 102.06 L 283.86 101.91 L 288.27 101.86 L 292.68 101.86 L 297.09000000000003 101.86 L 301.5 101.86 L 305.91 101.86 L 310.32 101.86 L 314.73 101.86 L 319.14 101.86 L 323.55 101.86 L 327.96 101.86 L 332.36 101.86 L 336.77 101.86 L 341.18 101.86 L 345.59000000000003 101.86 L 350.0 101.86 L 354.41 101.86 L 358.82 101.86 L 363.23 101.86 L 367.64 101.86 L 372.05 101.86 L 376.46 101.86 L 380.86 101.86 L 385.27 101.86 L 389.68 101.86 L 394.09000000000003 101.86 L 398.5 101.86 L 402.91 101.86 L 407.32 101.86 L 411.73 101.86 L 416.14 101.86 L 420.55 101.86 L 424.96000000000004 101.86 L 429.36 101.86 L 433.77 101.86 L 438.18 101.86 L 442.59000000000003 101.86 L 447.0 101.86 L 451.41 101.86 L 455.82 101.86 L 460.23 101.86 L 464.64 101.86 L 469.05 101.86 L 473.46000000000004 101.86 L 477.86 101.86 L 482.27 101.86 L 486.68 101.86 L 491.09000000000003 101.86 L 495.5 101.86 L 499.91 101.86 " stroke="#ff8c00" stroke-width="2" fill="none" /><path d="M 63.410000000000004 391.14 L 67.82000000000001 391.14 L 72.23 391.14 L 76.64 391.14 L 81.05 391.14 L 85.45 391.14 L 89.86 391.14 L 94.27 391.14 L 98.68 391.14 L 103.09 391.14 L 107.5 391.14 L 111.91 391.14 L 116.32000000000001 391.14 L 120.73 391.14 L 125.14 391.14 L 129.55 391.14 L 133.95 391.14 L 138.36 391.14 L 142.77 391.14 L 147.18 391.13 L 151.59 391.1 L 156.0 391.05 L 160.41 390.91 L 164.82 390.63 L 169.23 390.07 L 173.64000000000001 389.03000000000003 L 178.05 387.2 L 182.45000000000002 384.16 L 186.86 379.38 L 191.27 372.27 L 195.68 362.25 L 200.09 348.85 L 204.5 331.85 L 208.91 311.39 L 213.32 287.99 L 217.73000000000002 262.58 L 222.14000000000001 236.36 L 226.55 210.66 L 230.95000000000002 186.73 L 235.36 165.56 L 239.77 147.78 L 244.18 133.6 L 248.59 122.86 L 253.0 115.14 L 257.41 109.87 L 261.82 106.47 L 266.23 104.39 L 270.64 103.18 L 275.05 102.51 L 279.45 102.17 L 283.86 101.99000000000001 L 288.27 101.92 L 292.68 101.88 L 297.09000000000003 101.87 L 301.5 101.86 L 305.91 101.86 L 310.32 101.86 L 314.73 101.86 L 319.14 101.86 L 323.55 101.86 L 327.96 101.86 L 332.36 101.86 L 336.77 101.86 L 341.18 101.86 L 345.59000000000003 101.86 L 350.0 101.86 L 354.41 101.86 L 358.82 101.86 L 363.23 101.86 L 367.64 101.86 L 372.05 101.86 L 376.46 101.86 L 380.86 101.86 L 385.27 101.86 L 389.68 101.86 L 394.09000000000003 101.86 L 398.5 101.86 L 402.91 101.86 L 407.32 101.86 L 411.73 101.86 L 416.14 101.86 L 420.55 101.86 L 424.96000000000004 101.86 L 429.36 101.86 L 433.77 101.86 L 438.18 101.86 L 442.59000000000003 101.86 L 447.0 101.86 L 451.41 101.86 L 455.82 101.86 L 460.23 101.86 L 464.64 101.86 L 469.05 101.86 L 473.46000000000004 101.86 L 477.86 101.86 L 482.27 101.86 L 486.68 101.86 L 491.09000000000003 101.86 L 495.5 101.86 L 499.91 101.86 " stroke="#000000" stroke-width="1" fill="none" stroke-dasharray="8 4" /><rect x="554" y="34" width="137" height="92" fill="#ffffff" /><rect x="554" y="34" width="137" height="92" fill="none" stroke="#000000" stroke-width="1" /><text x="584" y="53.2" font-size="12" text-anchor="start">k=1 measured</text><line x1="564" y1="49" x2="576" y2="49" stroke="#4682b4" stroke-width="2" /><text x="584" y="71.2" font-size="12" text-anchor="start">k=2 measured</text><line x1="564" y1="67" x2="576" y2="67" stroke="#dc143c" stroke-width="2" /><text x="584" y="89.2" font-size="12" text-anchor="start">k=4 measured</text><line x1="564" y1="85" x2="576" y2="85" stroke="seagreen" stroke-width="2" /><text x="584" y="107.2" font-size="12" text-anchor="start">k=8 measured</text><line x1="564" y1="103" x2="576" y2="103" stroke="#ff8c00" stroke-width="2" /></svg>