<svg xmlns="http://www.w3.org/2000/svg" width="700" height="500" font-family="DejaVu Sans, Liberation Sans, Arial, sans-serif" fill="black"><rect width="100%" height="100%" fill="white" /><line x1="59" y1="449" x2="583" y2="449" stroke="#000000" stroke-width="1" /><line x1="59" y1="44" x2="59" y2="449" stroke="#000000" stroke-width="1" /><line x1="163.8" y1="44" x2="163.8" y2="449" stroke="#cccccc" stroke-width="1" /><line x1="268.6" y1="44" x2="268.6" y2="449" stroke="#cccccc" stroke-width="1" /><line x1="373.40000000000003" y1="44" x2="373.40000000000003" y2="449" stroke="#cccccc" stroke-width="1" /><line x1="478.2" y1="44" x2="478.2" y2="449" stroke="#cccccc" stroke-width="1" /><line x1="583" y1="44" x2="583" y2="449" stroke="#cccccc" stroke-width="1" /><line x1="59" y1="364.63" x2="583" y2="364.63" stroke="#cccccc" stroke-width="1" /><line x1="59" y1="280.25" x2="583" y2="280.25" stroke="#cccccc" stroke-width="1" /><line x1="59" y1="195.88" x2="583" y2="195.88" stroke="#cccccc" stroke-width="1" /><line x1="59" y1="111.5" x2="583" y2="111.5" stroke="#cccccc" stroke-width="1" /><line x1="59" y1="449" x2="59" y2="454" stroke="#000000" stroke-width="1" /><text x="59" y="466" font-size="12" text-anchor="middle">0</text><line x1="163.8" y1="449" x2="163.8" y2="454" stroke="#000000" stroke-width="1" /><text x="163.8" y="466" font-size="12" text-anchor="middle">10</text><line x1="268.6" y1="449" x2="268.6" y2="454" stroke="#000000" stroke-width="1" /><text x="268.6" y="466" font-size="12" text-anchor="middle">20</text><line x1="373.40000000000003" y1="449" x2="373.40000000000003" y2="454" stroke="#000000" stroke-width="1" /><text x="373.40000000000003" y="466" font-size="12" text-anchor="middle">30</text><line x1="478.2" y1="449" x2="478.2" y2="454" stroke="#000000" stroke-width="1" /><text x="478.2" y="466" font-size="12" text-anchor="middle">40</text><line x1="583" y1="449" x2="583" y2="454" stroke="#000000" stroke-width="1" /><text x="583" y="466" font-size="12" text-anchor="middle">50</text><line x1="54" y1="449" x2="59" y2="449" stroke="#000000" stroke-width="1" /><text x="51" y="453.2" font-size="12" text-anchor="end">0</text><line x1="54" y1="364.63" x2="59" y2="364.63" stroke="#000000" stroke-width="1" /><text x="51" y="368.83" font-size="12" text-anchor="end">25</text><line x1="54" y1="280.25" x2="59" y2="280.25" stroke="#000000" stroke-width="1" /><text x="51" y="284.45" font-size="12" text-anchor="end">50</text><line x1="54" y1="195.88" x2="59" y2="195.88" stroke="#000000" stroke-width="1" /><text x="51" y="200.08" font-size="12" text-anchor="end">75</text><line x1="54" y1="111.5" x2="59" y2="111.5" stroke="#000000" stroke-width="1" /><text x="51" y="115.7" font-size="12" text-anchor="end">100</text><text x="321" y="493" font-size="14" text-anchor="middle">r  [h^-1 Mpc]</text><text x="15" y="250" font-size="14" text-anchor="middle" transform="rotate(-90,15,250)">r^2 xi(r)  [h^-2 Mpc^2]</text><text x="321" y="22" font-size="18" text-anchor="middle">CoxMock: r^2 xi(r)</text><path d="M 98.3 105.95 L 114.02 103.42 L 129.74 103.65 L 145.46 110.55 L 161.18 115.33 L 176.9 114.23 L 192.62 117.24000000000001 L 208.34 105.51 L 224.06 101.34 L 239.78 115.45 L 255.5 121.56 L 271.22 106.74000000000001 L 286.94 124.87 L 302.66 110.13 L 318.38 95.69 L 334.1 109.72 L 349.82 118.5 L 365.54 113.09 L 381.26 120.01 L 396.98 122.41 L 412.7 113.56 L 428.42 97.32000000000001 L 444.14 109.47 L 459.86 163.32 L 475.58 118.07000000000001 L 491.3 89.99 L 507.02000000000004 130.65 L 522.74 123.68 L 538.46 120.33 L 554.1800000000001 136.82 L 554.1800000000001 302.26 L 538.46 319.08 L 522.74 285.7 L 507.02000000000004 273.86 L 491.3 271.13 L 475.58 279.22 L 459.86 279.03000000000003 L 444.14 242.38 L 428.42 254.53 L 412.7 235.71 L 396.98 236.93 L 381.26 257.26 L 365.54 235.15 L 349.82 241.86 L 334.1 199.41 L 318.38 187.55 L 302.66 210.9 L 286.94 194.1 L 271.22 205.89000000000001 L 255.5 189.97 L 239.78 175.81 L 224.06 163.11 L 208.34 165.09 L 192.62 149.62 L 176.9 162.51 L 161.18 145.65 L 145.46 155.22 L 129.74 140.89000000000001 L 114.02 140.74 L 98.3 138.46 Z" stroke="none" stroke-width="0" fill="#4682b4" fill-opacity="0.2" /><path d="M 98.3 122.21000000000001 L 114.02 122.08 L 129.74 122.27 L 145.46 132.89000000000001 L 161.18 130.49 L 176.9 138.37 L 192.62 133.43 L 208.34 135.3 L 224.06 132.23 L 239.78 145.63 L 255.5 155.76 L 271.22 156.31 L 286.94 159.48 L 302.66 160.52 L 318.38 141.62 L 334.1 154.57 L 349.82 180.18 L 365.54 174.12 L 381.26 188.64000000000001 L 396.98 179.67000000000002 L 412.7 174.63 L 428.42 175.93 L 444.14 175.92000000000002 L 459.86 221.18 L 475.58 198.64000000000001 L 491.3 180.56 L 507.02000000000004 202.26 L 522.74 204.69 L 538.46 219.71 L 554.1800000000001 219.54 " stroke="#4682b4" stroke-width="2" fill="none" /><path d="M 90.44 118.35000000000001 L 92.02 118.60000000000001 L 93.59 118.86 L 95.17 119.11 L 96.75 119.36 L 98.33 119.61 L 99.9 119.87 L 101.48 120.12 L 103.06 120.37 L 104.64 120.62 L 106.21000000000001 120.88 L 107.79 121.13 L 109.37 121.38 L 110.94 121.64 L 112.52 121.89 L 114.10000000000001 122.14 L 115.68 122.39 L 117.25 122.65 L 118.83 122.9 L 120.41 123.15 L 121.99000000000001 123.4 L 123.56 123.66 L 125.14 123.91 L 126.72 124.16 L 128.29 124.41 L 129.87 124.67 L 131.45 124.92 L 133.03 125.17 L 134.6 125.42 L 136.18 125.68 L 137.76 125.93 L 139.33 126.18 L 140.91 126.43 L 142.49 126.69 L 144.07 126.94 L 145.64000000000001 127.19 L 147.22 127.45 L 148.8 127.7 L 150.38 127.95 L 151.95000000000002 128.2 L 153.53 128.46 L 155.11 128.71 L 156.68 128.96 L 158.26 129.21 L 159.84 129.47 L 161.42000000000002 129.72 L 162.99 129.97 L 164.57 130.22 L 166.15 130.48 L 167.73 130.73 L 169.3 130.98 L 170.88 131.23 L 172.46 131.49 L 174.03 131.74 L 175.61 131.99 L 177.19 132.24 L 178.77 132.5 L 180.34 132.75 L 181.92000000000002 133.0 L 183.5 133.26 L 185.08 133.51 L 186.65 133.76 L 188.23 134.01 L 189.81 134.27 L 191.38 134.52 L 192.96 134.77 L 194.54 135.02 L 196.12 135.28 L 197.69 135.53 L 199.27 135.78 L 200.85 136.03 L 202.43 136.29 L 204.0 136.54 L 205.58 136.79 L 207.16 137.04 L 208.73000000000002 137.3 L 210.31 137.55 L 211.89000000000001 137.8 L 213.47 138.05 L 215.04 138.31 L 216.62 138.56 L 218.20000000000002 138.81 L 219.78 139.06 L 221.35 139.32 L 222.93 139.57 L 224.51 139.82 L 226.08 140.08 L 227.66 140.33 L 229.24 140.58 L 230.82 140.83 L 232.39000000000001 141.09 L 233.97 141.34 L 235.55 141.59 L 237.12 141.84 L 238.70000000000002 142.1 L 240.28 142.35 L 241.86 142.6 L 243.43 142.85 L 245.01 143.11 L 246.59 143.36 L 248.17000000000002 143.61 L 249.74 143.86 L 251.32 144.12 L 252.9 144.37 L 254.47 144.62 L 256.05 144.87 L 257.63 145.13 L 259.21 145.38 L 260.78000000000003 145.63 L 262.36 145.89000000000001 L 263.94 146.14000000000001 L 265.52 146.39000000000001 L 267.09000000000003 146.64000000000001 L 268.67 146.9 L 270.25 147.15 L 271.82 147.4 L 273.40000000000003 147.65 L 274.98 147.91 L 276.56 148.16 L 278.13 148.41 L 279.71 148.66 L 281.29 148.92000000000002 L 282.87 149.17000000000002 L 284.44 149.42000000000002 L 286.02 149.67000000000002 L 287.6 149.93 L 289.17 150.18 L 290.75 150.43 L 292.33 150.68 L 293.91 150.94 L 295.48 151.19 L 297.06 151.44 L 298.64 151.70000000000002 L 300.22 151.95000000000002 L 301.79 152.20000000000002 L 303.37 152.45000000000002 L 304.95 152.71 L 306.52 152.96 L 308.1 153.21 L 309.68 153.46 L 311.26 153.72 L 312.83 153.97 L 314.41 154.22 L 315.99 154.47 L 317.57 154.73 L 319.14 154.98 L 320.72 155.23 L 322.3 155.48 L 323.87 155.74 L 325.45 155.99 L 327.03000000000003 156.24 L 328.61 156.49 L 330.18 156.75 L 331.76 157.0 L 333.34000000000003 157.25 L 334.91 157.51 L 336.49 157.76 L 338.07 158.01 L 339.65000000000003 158.26 L 341.22 158.52 L 342.8 158.77 L 344.38 159.02 L 345.96 159.27 L 347.53000000000003 159.53 L 349.11 159.78 L 350.69 160.03 L 352.26 160.28 L 353.84000000000003 160.54 L 355.42 160.79 L 357.0 161.04 L 358.57 161.29 L 360.15000000000003 161.55 L 361.73 161.8 L 363.31 162.05 L 364.88 162.3 L 366.46 162.56 L 368.04 162.81 L 369.61 163.06 L 371.19 163.32 L 372.77 163.57 L 374.35 163.82 L 375.92 164.07 L 377.5 164.33 L 379.08 164.58 L 380.66 164.83 L 382.23 165.08 L 383.81 165.34 L 385.39 165.59 L 386.96000000000004 165.84 L 388.54 166.09 L 390.12 166.35 L 391.7 166.6 L 393.27 166.85 L 394.85 167.1 L 396.43 167.36 L 398.01 167.61 L 399.58 167.86 L 401.16 168.11 L 402.74 168.37 L 404.31 168.62 L 405.89 168.87 L 407.47 169.12 L 409.05 169.38 L 410.62 169.63 L 412.2 169.88 L 413.78000000000003 170.14000000000001 L 415.36 170.39000000000001 L 416.93 170.64000000000001 L 418.51 170.89000000000001 L 420.09000000000003 171.15 L 421.66 171.4 L 423.24 171.65 L 424.82 171.9 L 426.40000000000003 172.16 L 427.97 172.41 L 429.55 172.66 L 431.13 172.91 L 432.7 173.17000000000002 L 434.28000000000003 173.42000000000002 L 435.86 173.67000000000002 L 437.44 173.92000000000002 L 439.01 174.18 L 440.59000000000003 174.43 L 442.17 174.68 L 443.75 174.93 L 445.32 175.19 L 446.90000000000003 175.44 L 448.48 175.69 L 450.05 175.95000000000002 L 451.63 176.20000000000002 L 453.21000000000004 176.45000000000002 L 454.79 176.70000000000002 L 456.36 176.96 L 457.94 177.21 L 459.52 177.46 L 461.1 177.71 L 462.67 177.97 L 464.25 178.22 L 465.83 178.47 L 467.40000000000003 178.72 L 468.98 178.98 L 470.56 179.23 L 472.14 179.48 L 473.71000000000004 179.73 L 475.29 179.99 L 476.87 180.24 L 478.45 180.49 L 480.02 180.74 L 481.6 181.0 L 483.18 181.25 L 484.75 181.5 L 486.33 181.76 L 487.91 182.01 L 489.49 182.26 L 491.06 182.51 L 492.64 182.77 L 494.22 183.02 L 495.8 183.27 L 497.37 183.52 L 498.95 183.78 L 500.53000000000003 184.03 L 502.1 184.28 L 503.68 184.53 L 505.26 184.79 L 506.84000000000003 185.04 L 508.41 185.29 L 509.99 185.54 L 511.57 185.8 L 513.15 186.05 L 514.72 186.3 L 516.3 186.55 L 517.88 186.81 L 519.45 187.06 L 521.03 187.31 L 522.61 187.57 L 524.19 187.82 L 525.76 188.07 L 527.34 188.32 L 528.92 188.58 L 530.49 188.83 L 532.07 189.08 L 533.65 189.33 L 535.23 189.59 L 536.8 189.84 L 538.38 190.09 L 539.96 190.34 L 541.54 190.6 L 543.11 190.85 L 544.69 191.1 L 546.27 191.35 L 547.84 191.61 L 549.42 191.86 L 551.0 192.11 L 552.58 192.36 L 554.15 192.62 L 555.73 192.87 L 557.3100000000001 193.12 L 558.89 193.38 L 560.46 193.63 L 562.04 193.88 " stroke="#000000" stroke-width="1.5" fill="none" stroke-dasharray="8 4" /><line x1="2155" y1="44" x2="2155" y2="449" stroke="#888888" stroke-width="0.8" stroke-dasharray="6 4" /><text x="2159" y="56" font-size="12" text-anchor="start">r = l</text><rect x="588" y="34" width="103" height="56" fill="#ffffff" /><rect x="588" y="34" width="103" height="56" fill="none" stroke="#000000" stroke-width="1" /><text x="618" y="53.2" font-size="12" text-anchor="start">kNN LS</text><line x1="598" y1="49" x2="610" y2="49" stroke="#4682b4" stroke-width="2" /><text x="618" y="71.2" font-size="12" text-anchor="start">Analytic</text><line x1="598" y1="67" x2="610" y2="67" stroke="#000000" stroke-width="2" stroke-dasharray="8 4" /></svg>