<svg xmlns="http://www.w3.org/2000/svg" width="1106" height="825" font-family="DejaVu Sans, Liberation Sans, Arial, sans-serif" fill="black"><rect width="100%" height="100%" fill="white" /><g transform="translate(10,40)"><line x1="59" y1="329" x2="466" y2="329" stroke="#000000" stroke-width="1" /><line x1="59" y1="44" x2="59" y2="329" stroke="#000000" stroke-width="1" /><line x1="140.4" y1="44" x2="140.4" y2="329" stroke="#cccccc" stroke-width="1" /><line x1="221.8" y1="44" x2="221.8" y2="329" stroke="#cccccc" stroke-width="1" /><line x1="303.2" y1="44" x2="303.2" y2="329" stroke="#cccccc" stroke-width="1" /><line x1="384.6" y1="44" x2="384.6" y2="329" stroke="#cccccc" stroke-width="1" /><line x1="466" y1="44" x2="466" y2="329" stroke="#cccccc" stroke-width="1" /><line x1="59" y1="269.63" x2="466" y2="269.63" stroke="#cccccc" stroke-width="1" /><line x1="59" y1="210.25" x2="466" y2="210.25" stroke="#cccccc" stroke-width="1" /><line x1="59" y1="150.88" x2="466" y2="150.88" stroke="#cccccc" stroke-width="1" /><line x1="59" y1="91.5" x2="466" y2="91.5" stroke="#cccccc" stroke-width="1" /><line x1="59" y1="329" x2="59" y2="334" stroke="#000000" stroke-width="1" /><text x="59" y="346" font-size="12" text-anchor="middle">0</text><line x1="140.4" y1="329" x2="140.4" y2="334" stroke="#000000" stroke-width="1" /><text x="140.4" y="346" font-size="12" text-anchor="middle">10</text><line x1="221.8" y1="329" x2="221.8" y2="334" stroke="#000000" stroke-width="1" /><text x="221.8" y="346" font-size="12" text-anchor="middle">20</text><line x1="303.2" y1="329" x2="303.2" y2="334" stroke="#000000" stroke-width="1" /><text x="303.2" y="346" font-size="12" text-anchor="middle">30</text><line x1="384.6" y1="329" x2="384.6" y2="334" stroke="#000000" stroke-width="1" /><text x="384.6" y="346" font-size="12" text-anchor="middle">40</text><line x1="466" y1="329" x2="466" y2="334" stroke="#000000" stroke-width="1" /><text x="466" y="346" font-size="12" text-anchor="middle">50</text><line x1="54" y1="329" x2="59" y2="329" stroke="#000000" stroke-width="1" /><text x="51" y="333.2" font-size="12" text-anchor="end">0</text><line x1="54" y1="269.63" x2="59" y2="269.63" stroke="#000000" stroke-width="1" /><text x="51" y="273.83" font-size="12" text-anchor="end">2.5</text><line x1="54" y1="210.25" x2="59" y2="210.25" stroke="#000000" stroke-width="1" /><text x="51" y="214.45000000000002" font-size="12" text-anchor="end">5</text><line x1="54" y1="150.88" x2="59" y2="150.88" stroke="#000000" stroke-width="1" /><text x="51" y="155.07" font-size="12" text-anchor="end">7.5</text><line x1="54" y1="91.5" x2="59" y2="91.5" stroke="#000000" stroke-width="1" /><text x="51" y="95.7" font-size="12" text-anchor="end">10</text><text x="262.5" y="373" font-size="14" text-anchor="middle">r  [h^-1 Mpc]</text><text x="15" y="190" font-size="14" text-anchor="middle" transform="rotate(-90,15,190)">xi(r)</text><text x="262.5" y="22" font-size="18" text-anchor="middle">xi(r)</text><path d="M 89.53 157.34 L 101.74000000000001 240.77 L 113.95 275.66 L 126.16 294.01 L 138.37 304.3 L 150.57 310.39 L 162.79 314.64 L 175.0 317.1 L 187.21 319.14 L 199.42000000000002 321.11 L 211.63 322.45 L 223.84 323.13 L 236.05 324.18 L 248.26000000000002 324.59000000000003 L 260.47 324.94 L 272.68 325.54 L 284.89 325.98 L 297.1 326.24 L 309.31 326.55 L 321.52 326.79 L 333.73 326.93 L 345.94 327.01 L 358.15000000000003 327.23 L 370.36 327.63 L 382.57 327.53000000000003 L 394.78000000000003 327.52 L 406.99 327.77 L 419.2 327.83 L 431.41 327.89 L 443.62 328.02 L 443.62 328.54 L 431.41 328.56 L 419.2 328.41 L 406.99 328.33 L 394.78000000000003 328.26 L 382.57 328.24 L 370.36 328.18 L 358.15000000000003 327.92 L 345.94 327.90000000000003 L 333.73 327.68 L 321.52 327.57 L 309.31 327.57 L 297.1 327.24 L 284.89 327.11 L 272.68 326.45 L 260.47 326.0 L 248.26000000000002 325.90000000000003 L 236.05 325.21 L 223.84 324.83 L 211.63 323.82 L 199.42000000000002 322.54 L 187.21 320.89 L 175.0 319.16 L 162.79 316.04 L 150.57 313.07 L 138.37 306.54 L 126.16 298.63 L 113.95 281.41 L 101.74000000000001 250.3 L 89.53 173.6 Z" stroke="none" stroke-width="0" fill="#4682b4" fill-opacity="0.2" /><path d="M 89.53 165.47 L 101.74000000000001 245.53 L 113.95 278.54 L 126.16 296.32 L 138.37 305.42 L 150.57 311.73 L 162.79 315.34000000000003 L 175.0 318.13 L 187.21 320.01 L 199.42000000000002 321.83 L 211.63 323.13 L 223.84 323.98 L 236.05 324.69 L 248.26000000000002 325.24 L 260.47 325.47 L 272.68 325.99 L 284.89 326.54 L 297.1 326.74 L 309.31 327.06 L 321.52 327.18 L 333.73 327.3 L 345.94 327.45 L 358.15000000000003 327.58 L 370.36 327.90000000000003 L 382.57 327.89 L 394.78000000000003 327.89 L 406.99 328.05 L 419.2 328.12 L 431.41 328.23 L 443.62 328.28000000000003 " stroke="#4682b4" stroke-width="2" fill="none" /><path d="M 83.42 70.47 L 84.65 94.76 L 85.87 115.79 L 87.10000000000001 134.13 L 88.32000000000001 150.21 L 89.55 164.39000000000001 L 90.77 176.96 L 92.0 188.15 L 93.22 198.15 L 94.45 207.13 L 95.67 215.23000000000002 L 96.9 222.55 L 98.12 229.19 L 99.35000000000001 235.23000000000002 L 100.57000000000001 240.74 L 101.8 245.79 L 103.02 250.42000000000002 L 104.25 254.67000000000002 L 105.47 258.59000000000003 L 106.7 262.21 L 107.92 265.57 L 109.15 268.68 L 110.37 271.56 L 111.60000000000001 274.25 L 112.82000000000001 276.75 L 114.05 279.09000000000003 L 115.27 281.28000000000003 L 116.5 283.33 L 117.72 285.25 L 118.95 287.05 L 120.17 288.74 L 121.4 290.34000000000003 L 122.62 291.84000000000003 L 123.85000000000001 293.26 L 125.07000000000001 294.6 L 126.3 295.87 L 127.52 297.07 L 128.75 298.2 L 129.97 299.28000000000003 L 131.2 300.3 L 132.42000000000002 301.28000000000003 L 133.65 302.2 L 134.87 303.08 L 136.1 303.92 L 137.32 304.71 L 138.55 305.47 L 139.77 306.2 L 141.0 306.89 L 142.22 307.56 L 143.45000000000002 308.19 L 144.67000000000002 308.8 L 145.9 309.38 L 147.12 309.94 L 148.35 310.47 L 149.57 310.98 L 150.8 311.47 L 152.02 311.95 L 153.25 312.40000000000003 L 154.47 312.84000000000003 L 155.70000000000002 313.26 L 156.93 313.66 L 158.15 314.05 L 159.38 314.42 L 160.6 314.78000000000003 L 161.83 315.13 L 163.05 315.47 L 164.28 315.79 L 165.5 316.1 L 166.73 316.41 L 167.95000000000002 316.7 L 169.18 316.98 L 170.4 317.25 L 171.63 317.51 L 172.85 317.77 L 174.08 318.02 L 175.3 318.25 L 176.53 318.49 L 177.75 318.71 L 178.98 318.93 L 180.20000000000002 319.14 L 181.43 319.34000000000003 L 182.65 319.54 L 183.88 319.73 L 185.1 319.92 L 186.33 320.1 L 187.55 320.28000000000003 L 188.78 320.45 L 190.0 320.61 L 191.23000000000002 320.77 L 192.45000000000002 320.93 L 193.68 321.08 L 194.9 321.23 L 196.13 321.38 L 197.35 321.52 L 198.58 321.65000000000003 L 199.8 321.79 L 201.03 321.92 L 202.25 322.04 L 203.48000000000002 322.17 L 204.70000000000002 322.29 L 205.93 322.40000000000003 L 207.15 322.52 L 208.38 322.63 L 209.6 322.74 L 210.83 322.84000000000003 L 212.05 322.95 L 213.28 323.05 L 214.5 323.15000000000003 L 215.73000000000002 323.24 L 216.95000000000002 323.34000000000003 L 218.18 323.43 L 219.4 323.52 L 220.63 323.6 L 221.85 323.69 L 223.08 323.77 L 224.3 323.85 L 225.53 323.93 L 226.75 324.01 L 227.98000000000002 324.09000000000003 L 229.20000000000002 324.16 L 230.43 324.23 L 231.66 324.31 L 232.88 324.38 L 234.11 324.44 L 235.33 324.51 L 236.56 324.58 L 237.78 324.64 L 239.01 324.7 L 240.23000000000002 324.77 L 241.46 324.83 L 242.68 324.88 L 243.91 324.94 L 245.13 325.0 L 246.36 325.05 L 247.58 325.11 L 248.81 325.16 L 250.03 325.21 L 251.26000000000002 325.27 L 252.48000000000002 325.32 L 253.71 325.37 L 254.93 325.41 L 256.16 325.46 L 257.38 325.51 L 258.61 325.55 L 259.83 325.6 L 261.06 325.64 L 262.28000000000003 325.69 L 263.51 325.73 L 264.73 325.77 L 265.96 325.81 L 267.18 325.85 L 268.41 325.89 L 269.63 325.93 L 270.86 325.97 L 272.08 326.0 L 273.31 326.04 L 274.53000000000003 326.08 L 275.76 326.11 L 276.98 326.15000000000003 L 278.21 326.18 L 279.43 326.21 L 280.66 326.25 L 281.88 326.28000000000003 L 283.11 326.31 L 284.33 326.34000000000003 L 285.56 326.38 L 286.78000000000003 326.41 L 288.01 326.44 L 289.23 326.46 L 290.46 326.49 L 291.68 326.52 L 292.91 326.55 L 294.13 326.58 L 295.36 326.61 L 296.58 326.63 L 297.81 326.66 L 299.03000000000003 326.68 L 300.26 326.71 L 301.48 326.73 L 302.71 326.76 L 303.94 326.78000000000003 L 305.16 326.81 L 306.39 326.83 L 307.61 326.85 L 308.84000000000003 326.88 L 310.06 326.90000000000003 L 311.29 326.92 L 312.51 326.94 L 313.74 326.97 L 314.96 326.99 L 316.19 327.01 L 317.41 327.03000000000003 L 318.64 327.05 L 319.86 327.07 L 321.09000000000003 327.09000000000003 L 322.31 327.11 L 323.54 327.13 L 324.76 327.15000000000003 L 325.99 327.16 L 327.21 327.18 L 328.44 327.2 L 329.66 327.22 L 330.89 327.24 L 332.11 327.25 L 333.34000000000003 327.27 L 334.56 327.29 L 335.79 327.3 L 337.01 327.32 L 338.24 327.34000000000003 L 339.46 327.35 L 340.69 327.37 L 341.91 327.38 L 343.14 327.40000000000003 L 344.36 327.41 L 345.59000000000003 327.43 L 346.81 327.44 L 348.04 327.46 L 349.26 327.47 L 350.49 327.49 L 351.71 327.5 L 352.94 327.52 L 354.16 327.53000000000003 L 355.39 327.54 L 356.61 327.56 L 357.84000000000003 327.57 L 359.06 327.58 L 360.29 327.59000000000003 L 361.51 327.61 L 362.74 327.62 L 363.96 327.63 L 365.19 327.64 L 366.41 327.66 L 367.64 327.67 L 368.86 327.68 L 370.09000000000003 327.69 L 371.31 327.7 L 372.54 327.71 L 373.76 327.73 L 374.99 327.74 L 376.21 327.75 L 377.44 327.76 L 378.67 327.77 L 379.89 327.78000000000003 L 381.12 327.79 L 382.34000000000003 327.8 L 383.57 327.81 L 384.79 327.82 L 386.02 327.83 L 387.24 327.84000000000003 L 388.47 327.85 L 389.69 327.86 L 390.92 327.87 L 392.14 327.88 L 393.37 327.89 L 394.59000000000003 327.90000000000003 L 395.82 327.91 L 397.04 327.91 L 398.27 327.92 L 399.49 327.93 L 400.72 327.94 L 401.94 327.95 L 403.17 327.96 L 404.39 327.97 L 405.62 327.97 L 406.84000000000003 327.98 L 408.07 327.99 L 409.29 328.0 L 410.52 328.01 L 411.74 328.01 L 412.97 328.02 L 414.19 328.03000000000003 L 415.42 328.04 L 416.64 328.05 L 417.87 328.05 L 419.09000000000003 328.06 L 420.32 328.07 L 421.54 328.07 L 422.77 328.08 L 423.99 328.09000000000003 L 425.22 328.1 L 426.44 328.1 L 427.67 328.11 L 428.89 328.12 L 430.12 328.12 L 431.34000000000003 328.13 L 432.57 328.14 L 433.79 328.14 L 435.02 328.15000000000003 L 436.24 328.16 L 437.47 328.16 L 438.69 328.17 L 439.92 328.17 L 441.14 328.18 L 442.37 328.19 L 443.59000000000003 328.19 L 444.82 328.2 L 446.04 328.2 L 447.27 328.21 L 448.49 328.22 L 449.72 328.22 " stroke="#000000" stroke-width="1.5" fill="none" stroke-dasharray="8 4" /></g><text x="18" y="58" font-size="16" text-anchor="start" font-weight="bold">A</text><g transform="translate(505,40)"><line x1="59" y1="329" x2="466" y2="329" stroke="#000000" stroke-width="1" /><line x1="59" y1="44" x2="59" y2="329" stroke="#000000" stroke-width="1" /><line x1="140.4" y1="44" x2="140.4" y2="329" stroke="#cccccc" stroke-width="1" /><line x1="221.8" y1="44" x2="221.8" y2="329" stroke="#cccccc" stroke-width="1" /><line x1="303.2" y1="44" x2="303.2" y2="329" stroke="#cccccc" stroke-width="1" /><line x1="384.6" y1="44" x2="384.6" y2="329" stroke="#cccccc" stroke-width="1" /><line x1="466" y1="44" x2="466" y2="329" stroke="#cccccc" stroke-width="1" /><line x1="59" y1="269.63" x2="466" y2="269.63" stroke="#cccccc" stroke-width="1" /><line x1="59" y1="210.25" x2="466" y2="210.25" stroke="#cccccc" stroke-width="1" /><line x1="59" y1="150.88" x2="466" y2="150.88" stroke="#cccccc" stroke-width="1" /><line x1="59" y1="91.5" x2="466" y2="91.5" stroke="#cccccc" stroke-width="1" /><line x1="59" y1="329" x2="59" y2="334" stroke="#000000" stroke-width="1" /><text x="59" y="346" font-size="12" text-anchor="middle">0</text><line x1="140.4" y1="329" x2="140.4" y2="334" stroke="#000000" stroke-width="1" /><text x="140.4" y="346" font-size="12" text-anchor="middle">10</text><line x1="221.8" y1="329" x2="221.8" y2="334" stroke="#000000" stroke-width="1" /><text x="221.8" y="346" font-size="12" text-anchor="middle">20</text><line x1="303.2" y1="329" x2="303.2" y2="334" stroke="#000000" stroke-width="1" /><text x="303.2" y="346" font-size="12" text-anchor="middle">30</text><line x1="384.6" y1="329" x2="384.6" y2="334" stroke="#000000" stroke-width="1" /><text x="384.6" y="346" font-size="12" text-anchor="middle">40</text><line x1="466" y1="329" x2="466" y2="334" stroke="#000000" stroke-width="1" /><text x="466" y="346" font-size="12" text-anchor="middle">50</text><line x1="54" y1="329" x2="59" y2="329" stroke="#000000" stroke-width="1" /><text x="51" y="333.2" font-size="12" text-anchor="end">0</text><line x1="54" y1="269.63" x2="59" y2="269.63" stroke="#000000" stroke-width="1" /><text x="51" y="273.83" font-size="12" text-anchor="end">25</text><line x1="54" y1="210.25" x2="59" y2="210.25" stroke="#000000" stroke-width="1" /><text x="51" y="214.45000000000002" font-size="12" text-anchor="end">50</text><line x1="54" y1="150.88" x2="59" y2="150.88" stroke="#000000" stroke-width="1" /><text x="51" y="155.07" font-size="12" text-anchor="end">75</text><line x1="54" y1="91.5" x2="59" y2="91.5" stroke="#000000" stroke-width="1" /><text x="51" y="95.7" font-size="12" text-anchor="end">100</text><text x="262.5" y="373" font-size="14" text-anchor="middle">r  [h^-1 Mpc]</text><text x="15" y="190" font-size="14" text-anchor="middle" transform="rotate(-90,15,190)">r^2 xi(r)</text><text x="262.5" y="22" font-size="18" text-anchor="middle">r^2 xi(r)</text><path d="M 89.53 87.60000000000001 L 101.74000000000001 85.81 L 113.95 85.98 L 126.16 90.83 L 138.37 94.19 L 150.57 93.42 L 162.79 95.54 L 175.0 87.29 L 187.21 84.35000000000001 L 199.42000000000002 94.28 L 211.63 98.58 L 223.84 88.15 L 236.05 100.91 L 248.26000000000002 90.54 L 260.47 80.38 L 272.68 90.25 L 284.89 96.42 L 297.1 92.62 L 309.31 97.49000000000001 L 321.52 99.17 L 333.73 92.95 L 345.94 81.52 L 358.15000000000003 90.07000000000001 L 370.36 127.97 L 382.57 96.12 L 394.78000000000003 76.36 L 406.99 104.98 L 419.2 100.07000000000001 L 431.41 97.72 L 443.62 109.32000000000001 L 443.62 225.74 L 431.41 237.58 L 419.2 214.09 L 406.99 205.75 L 394.78000000000003 203.83 L 382.57 209.53 L 370.36 209.39000000000001 L 358.15000000000003 183.6 L 345.94 192.15 L 333.73 178.9 L 321.52 179.77 L 309.31 194.07 L 297.1 178.51 L 284.89 183.23 L 272.68 153.36 L 260.47 145.01 L 248.26000000000002 161.45000000000002 L 236.05 149.63 L 223.84 157.92000000000002 L 211.63 146.72 L 199.42000000000002 136.76 L 187.21 127.82000000000001 L 175.0 129.21 L 162.79 118.33 L 150.57 127.4 L 138.37 115.53 L 126.16 122.27 L 113.95 112.18 L 101.74000000000001 112.08 L 89.53 110.47 Z" stroke="none" stroke-width="0" fill="#4682b4" fill-opacity="0.2" /><path d="M 89.53 99.03 L 101.74000000000001 98.94 L 113.95 99.08 L 126.16 106.55 L 138.37 104.86 L 150.57 110.41 L 162.79 106.93 L 175.0 108.25 L 187.21 106.09 L 199.42000000000002 115.52 L 211.63 122.65 L 223.84 123.04 L 236.05 125.27 L 248.26000000000002 125.99000000000001 L 260.47 112.7 L 272.68 121.81 L 284.89 139.83 L 297.1 135.56 L 309.31 145.78 L 321.52 139.47 L 333.73 135.93 L 345.94 136.84 L 358.15000000000003 136.83 L 370.36 168.68 L 382.57 152.82 L 394.78000000000003 140.1 L 406.99 155.37 L 419.2 157.08 L 431.41 167.65 L 443.62 167.53 " stroke="#4682b4" stroke-width="2" fill="none" /><path d="M 83.42 96.32000000000001 L 84.65 96.5 L 85.87 96.68 L 87.10000000000001 96.85000000000001 L 88.32000000000001 97.03 L 89.55 97.21000000000001 L 90.77 97.39 L 92.0 97.57000000000001 L 93.22 97.74000000000001 L 94.45 97.92 L 95.67 98.10000000000001 L 96.9 98.28 L 98.12 98.45 L 99.35000000000001 98.63 L 100.57000000000001 98.81 L 101.8 98.99000000000001 L 103.02 99.17 L 104.25 99.34 L 105.47 99.52 L 106.7 99.7 L 107.92 99.88 L 109.15 100.05 L 110.37 100.23 L 111.60000000000001 100.41 L 112.82000000000001 100.59 L 114.05 100.77 L 115.27 100.94 L 116.5 101.12 L 117.72 101.3 L 118.95 101.48 L 120.17 101.65 L 121.4 101.83 L 122.62 102.01 L 123.85000000000001 102.19 L 125.07000000000001 102.37 L 126.3 102.54 L 127.52 102.72 L 128.75 102.9 L 129.97 103.08 L 131.2 103.25 L 132.42000000000002 103.43 L 133.65 103.61 L 134.87 103.79 L 136.1 103.96000000000001 L 137.32 104.14 L 138.55 104.32000000000001 L 139.77 104.5 L 141.0 104.68 L 142.22 104.85000000000001 L 143.45000000000002 105.03 L 144.67000000000002 105.21000000000001 L 145.9 105.39 L 147.12 105.56 L 148.35 105.74000000000001 L 149.57 105.92 L 150.8 106.10000000000001 L 152.02 106.28 L 153.25 106.45 L 154.47 106.63 L 155.70000000000002 106.81 L 156.93 106.99000000000001 L 158.15 107.16 L 159.38 107.34 L 160.6 107.52 L 161.83 107.7 L 163.05 107.88 L 164.28 108.05 L 165.5 108.23 L 166.73 108.41 L 167.95000000000002 108.59 L 169.18 108.76 L 170.4 108.94 L 171.63 109.12 L 172.85 109.3 L 174.08 109.48 L 175.3 109.65 L 176.53 109.83 L 177.75 110.01 L 178.98 110.19 L 180.20000000000002 110.36 L 181.43 110.54 L 182.65 110.72 L 183.88 110.9 L 185.1 111.08 L 186.33 111.25 L 187.55 111.43 L 188.78 111.61 L 190.0 111.79 L 191.23000000000002 111.96000000000001 L 192.45000000000002 112.14 L 193.68 112.32000000000001 L 194.9 112.5 L 196.13 112.68 L 197.35 112.85000000000001 L 198.58 113.03 L 199.8 113.21000000000001 L 201.03 113.39 L 202.25 113.56 L 203.48000000000002 113.74000000000001 L 204.70000000000002 113.92 L 205.93 114.10000000000001 L 207.15 114.27 L 208.38 114.45 L 209.6 114.63 L 210.83 114.81 L 212.05 114.99000000000001 L 213.28 115.16 L 214.5 115.34 L 215.73000000000002 115.52 L 216.95000000000002 115.7 L 218.18 115.87 L 219.4 116.05 L 220.63 116.23 L 221.85 116.41 L 223.08 116.59 L 224.3 116.76 L 225.53 116.94 L 226.75 117.12 L 227.98000000000002 117.3 L 229.20000000000002 117.47 L 230.43 117.65 L 231.66 117.83 L 232.88 118.01 L 234.11 118.19 L 235.33 118.36 L 236.56 118.54 L 237.78 118.72 L 239.01 118.9 L 240.23000000000002 119.07000000000001 L 241.46 119.25 L 242.68 119.43 L 243.91 119.61 L 245.13 119.79 L 246.36 119.96000000000001 L 247.58 120.14 L 248.81 120.32000000000001 L 250.03 120.5 L 251.26000000000002 120.67 L 252.48000000000002 120.85000000000001 L 253.71 121.03 L 254.93 121.21000000000001 L 256.16 121.39 L 257.38 121.56 L 258.61 121.74000000000001 L 259.83 121.92 L 261.06 122.10000000000001 L 262.28000000000003 122.27 L 263.51 122.45 L 264.73 122.63 L 265.96 122.81 L 267.18 122.99000000000001 L 268.41 123.16 L 269.63 123.34 L 270.86 123.52 L 272.08 123.7 L 273.31 123.87 L 274.53000000000003 124.05 L 275.76 124.23 L 276.98 124.41 L 278.21 124.59 L 279.43 124.76 L 280.66 124.94 L 281.88 125.12 L 283.11 125.3 L 284.33 125.47 L 285.56 125.65 L 286.78000000000003 125.83 L 288.01 126.01 L 289.23 126.18 L 290.46 126.36 L 291.68 126.54 L 292.91 126.72 L 294.13 126.9 L 295.36 127.07000000000001 L 296.58 127.25 L 297.81 127.43 L 299.03000000000003 127.61 L 300.26 127.78 L 301.48 127.96000000000001 L 302.71 128.14000000000001 L 303.94 128.32 L 305.16 128.5 L 306.39 128.67000000000002 L 307.61 128.85 L 308.84000000000003 129.03 L 310.06 129.21 L 311.29 129.38 L 312.51 129.56 L 313.74 129.74 L 314.96 129.92000000000002 L 316.19 130.1 L 317.41 130.27 L 318.64 130.45 L 319.86 130.63 L 321.09000000000003 130.81 L 322.31 130.98 L 323.54 131.16 L 324.76 131.34 L 325.99 131.52 L 327.21 131.7 L 328.44 131.87 L 329.66 132.05 L 330.89 132.23 L 332.11 132.41 L 333.34000000000003 132.58 L 334.56 132.76 L 335.79 132.94 L 337.01 133.12 L 338.24 133.3 L 339.46 133.47 L 340.69 133.65 L 341.91 133.83 L 343.14 134.01 L 344.36 134.18 L 345.59000000000003 134.36 L 346.81 134.54 L 348.04 134.72 L 349.26 134.9 L 350.49 135.07 L 351.71 135.25 L 352.94 135.43 L 354.16 135.61 L 355.39 135.78 L 356.61 135.96 L 357.84000000000003 136.14000000000001 L 359.06 136.32 L 360.29 136.49 L 361.51 136.67000000000002 L 362.74 136.85 L 363.96 137.03 L 365.19 137.21 L 366.41 137.38 L 367.64 137.56 L 368.86 137.74 L 370.09000000000003 137.92000000000002 L 371.31 138.09 L 372.54 138.27 L 373.76 138.45000000000002 L 374.99 138.63 L 376.21 138.81 L 377.44 138.98 L 378.67 139.16 L 379.89 139.34 L 381.12 139.52 L 382.34000000000003 139.69 L 383.57 139.87 L 384.79 140.05 L 386.02 140.23 L 387.24 140.41 L 388.47 140.58 L 389.69 140.76 L 390.92 140.94 L 392.14 141.12 L 393.37 141.29 L 394.59000000000003 141.47 L 395.82 141.65 L 397.04 141.83 L 398.27 142.01 L 399.49 142.18 L 400.72 142.36 L 401.94 142.54 L 403.17 142.72 L 404.39 142.89000000000001 L 405.62 143.07 L 406.84000000000003 143.25 L 408.07 143.43 L 409.29 143.61 L 410.52 143.78 L 411.74 143.96 L 412.97 144.14000000000001 L 414.19 144.32 L 415.42 144.49 L 416.64 144.67000000000002 L 417.87 144.85 L 419.09000000000003 145.03 L 420.32 145.21 L 421.54 145.38 L 422.77 145.56 L 423.99 145.74 L 425.22 145.92000000000002 L 426.44 146.09 L 427.67 146.27 L 428.89 146.45000000000002 L 430.12 146.63 L 431.34000000000003 146.8 L 432.57 146.98 L 433.79 147.16 L 435.02 147.34 L 436.24 147.52 L 437.47 147.69 L 438.69 147.87 L 439.92 148.05 L 441.14 148.23 L 442.37 148.4 L 443.59000000000003 148.58 L 444.82 148.76 L 446.04 148.94 L 447.27 149.12 L 448.49 149.29 L 449.72 149.47 " stroke="#000000" stroke-width="1.5" fill="none" stroke-dasharray="8 4" /></g><text x="513" y="58" font-size="16" text-anchor="start" font-weight="bold">B</text><g transform="translate(10,435)"><line x1="59" y1="329" x2="466" y2="329" stroke="#000000" stroke-width="1" /><line x1="59" y1="44" x2="59" y2="329" stroke="#000000" stroke-width="1" /><line x1="140.4" y1="44" x2="140.4" y2="329" stroke="#cccccc" stroke-width="1" /><line x1="221.8" y1="44" x2="221.8" y2="329" stroke="#cccccc" stroke-width="1" /><line x1="303.2" y1="44" x2="303.2" y2="329" stroke="#cccccc" stroke-width="1" /><line x1="384.6" y1="44" x2="384.6" y2="329" stroke="#cccccc" stroke-width="1" /><line x1="466" y1="44" x2="466" y2="329" stroke="#cccccc" stroke-width="1" /><line x1="59" y1="281.5" x2="466" y2="281.5" stroke="#cccccc" stroke-width="1" /><line x1="59" y1="234" x2="466" y2="234" stroke="#cccccc" stroke-width="1" /><line x1="59" y1="186.5" x2="466" y2="186.5" stroke="#cccccc" stroke-width="1" /><line x1="59" y1="139" x2="466" y2="139" stroke="#cccccc" stroke-width="1" /><line x1="59" y1="91.5" x2="466" y2="91.5" stroke="#cccccc" stroke-width="1" /><line x1="59" y1="44" x2="466" y2="44" stroke="#cccccc" stroke-width="1" /><line x1="59" y1="329" x2="59" y2="334" stroke="#000000" stroke-width="1" /><text x="59" y="346" font-size="12" text-anchor="middle">0</text><line x1="140.4" y1="329" x2="140.4" y2="334" stroke="#000000" stroke-width="1" /><text x="140.4" y="346" font-size="12" text-anchor="middle">10</text><line x1="221.8" y1="329" x2="221.8" y2="334" stroke="#000000" stroke-width="1" /><text x="221.8" y="346" font-size="12" text-anchor="middle">20</text><line x1="303.2" y1="329" x2="303.2" y2="334" stroke="#000000" stroke-width="1" /><text x="303.2" y="346" font-size="12" text-anchor="middle">30</text><line x1="384.6" y1="329" x2="384.6" y2="334" stroke="#000000" stroke-width="1" /><text x="384.6" y="346" font-size="12" text-anchor="middle">40</text><line x1="466" y1="329" x2="466" y2="334" stroke="#000000" stroke-width="1" /><text x="466" y="346" font-size="12" text-anchor="middle">50</text><line x1="54" y1="329" x2="59" y2="329" stroke="#000000" stroke-width="1" /><text x="51" y="333.2" font-size="12" text-anchor="end">-4</text><line x1="54" y1="281.5" x2="59" y2="281.5" stroke="#000000" stroke-width="1" /><text x="51" y="285.7" font-size="12" text-anchor="end">-3</text><line x1="54" y1="234" x2="59" y2="234" stroke="#000000" stroke-width="1" /><text x="51" y="238.20000000000002" font-size="12" text-anchor="end">-2</text><line x1="54" y1="186.5" x2="59" y2="186.5" stroke="#000000" stroke-width="1" /><text x="51" y="190.70000000000002" font-size="12" text-anchor="end">-1</text><line x1="54" y1="139" x2="59" y2="139" stroke="#000000" stroke-width="1" /><text x="51" y="143.20000000000002" font-size="12" text-anchor="end">0</text><line x1="54" y1="91.5" x2="59" y2="91.5" stroke="#000000" stroke-width="1" /><text x="51" y="95.7" font-size="12" text-anchor="end">1</text><line x1="54" y1="44" x2="59" y2="44" stroke="#000000" stroke-width="1" /><text x="51" y="48.2" font-size="12" text-anchor="end">2</text><text x="262.5" y="373" font-size="14" text-anchor="middle">r  [h^-1 Mpc]</text><text x="15" y="190" font-size="14" text-anchor="middle" transform="rotate(-90,15,190)">(xi - xi_true) / sigma</text><text x="262.5" y="22" font-size="18" text-anchor="middle">Bias / sigma_mean</text><circle cx="89.53" cy="172.94" r="3.5" fill="#4682b4" /><circle cx="101.74000000000001" cy="138.45000000000002" r="3.5" fill="#4682b4" /><circle cx="113.95" cy="111.89" r="3.5" fill="#4682b4" /><circle cx="126.16" cy="193.43" r="3.5" fill="#4682b4" /><circle cx="138.37" cy="150.32" r="3.5" fill="#4682b4" /><circle cx="150.57" cy="193.3" r="3.5" fill="#4682b4" /><circle cx="162.79" cy="122.15" r="3.5" fill="#4682b4" /><circle cx="175" cy="125.23" r="3.5" fill="#4682b4" /><circle cx="187.21" cy="87.25" r="3.5" fill="#4682b4" /><circle cx="199.42000000000002" cy="162.67000000000002" r="3.5" fill="#4682b4" /><circle cx="211.63" cy="207.18" r="3.5" fill="#4682b4" /><circle cx="223.84" cy="177.61" r="3.5" fill="#4682b4" /><circle cx="236.05" cy="198.29" r="3.5" fill="#4682b4" /><circle cx="248.26000000000002" cy="173.48" r="3.5" fill="#4682b4" /><circle cx="260.47" cy="77.78" r="3.5" fill="#4682b4" /><circle cx="272.68" cy="125.7" r="3.5" fill="#4682b4" /><circle cx="284.89" cy="208.86" r="3.5" fill="#4682b4" /><circle cx="297.1" cy="179.75" r="3.5" fill="#4682b4" /><circle cx="309.31" cy="212.39000000000001" r="3.5" fill="#4682b4" /><circle cx="321.52" cy="184.34" r="3.5" fill="#4682b4" /><circle cx="333.73" cy="155.24" r="3.5" fill="#4682b4" /><circle cx="345.94" cy="148.31" r="3.5" fill="#4682b4" /><circle cx="358.15000000000003" cy="141.96" r="3.5" fill="#4682b4" /><circle cx="370.36" cy="299.32" r="3.5" fill="#4682b4" /><circle cx="382.57" cy="188.06" r="3.5" fill="#4682b4" /><circle cx="394.78000000000003" cy="134.33" r="3.5" fill="#4682b4" /><circle cx="406.99" cy="189.99" r="3.5" fill="#4682b4" /><circle cx="419.2" cy="183.86" r="3.5" fill="#4682b4" /><circle cx="431.41" cy="202.28" r="3.5" fill="#4682b4" /><circle cx="443.62" cy="208.13" r="3.5" fill="#4682b4" /></g><text x="18" y="453" font-size="16" text-anchor="start" font-weight="bold">C</text><g transform="translate(505,435)"><line x1="59" y1="329" x2="466" y2="329" stroke="#000000" stroke-width="1" /><line x1="59" y1="44" x2="59" y2="329" stroke="#000000" stroke-width="1" /><line x1="160.75" y1="44" x2="160.75" y2="329" stroke="#cccccc" stroke-width="1" /><line x1="262.5" y1="44" x2="262.5" y2="329" stroke="#cccccc" stroke-width="1" /><line x1="364.25" y1="44" x2="364.25" y2="329" stroke="#cccccc" stroke-width="1" /><line x1="466" y1="44" x2="466" y2="329" stroke="#cccccc" stroke-width="1" /><line x1="59" y1="237.39000000000001" x2="466" y2="237.39000000000001" stroke="#cccccc" stroke-width="1" /><line x1="59" y1="186.5" x2="466" y2="186.5" stroke="#cccccc" stroke-width="1" /><line x1="59" y1="135.61" x2="466" y2="135.61" stroke="#cccccc" stroke-width="1" /><line x1="59" y1="84.71000000000001" x2="466" y2="84.71000000000001" stroke="#cccccc" stroke-width="1" /><line x1="59" y1="329" x2="59" y2="334" stroke="#000000" stroke-width="1" /><text x="59" y="346" font-size="12" text-anchor="middle">0</text><line x1="160.75" y1="329" x2="160.75" y2="334" stroke="#000000" stroke-width="1" /><text x="160.75" y="346" font-size="12" text-anchor="middle">10</text><line x1="262.5" y1="329" x2="262.5" y2="334" stroke="#000000" stroke-width="1" /><text x="262.5" y="346" font-size="12" text-anchor="middle">20</text><line x1="364.25" y1="329" x2="364.25" y2="334" stroke="#000000" stroke-width="1" /><text x="364.25" y="346" font-size="12" text-anchor="middle">30</text><line x1="466" y1="329" x2="466" y2="334" stroke="#000000" stroke-width="1" /><text x="466" y="346" font-size="12" text-anchor="middle">40</text><line x1="54" y1="288.29" x2="59" y2="288.29" stroke="#000000" stroke-width="1" /><text x="51" y="292.49" font-size="12" text-anchor="end">-0</text><line x1="54" y1="237.39000000000001" x2="59" y2="237.39000000000001" stroke="#000000" stroke-width="1" /><text x="51" y="241.59" font-size="12" text-anchor="end">0.25</text><line x1="54" y1="186.5" x2="59" y2="186.5" stroke="#000000" stroke-width="1" /><text x="51" y="190.70000000000002" font-size="12" text-anchor="end">0.5</text><line x1="54" y1="135.61" x2="59" y2="135.61" stroke="#000000" stroke-width="1" /><text x="51" y="139.81" font-size="12" text-anchor="end">0.75</text><line x1="54" y1="84.71000000000001" x2="59" y2="84.71000000000001" stroke="#000000" stroke-width="1" /><text x="51" y="88.91" font-size="12" text-anchor="end">1</text><text x="262.5" y="373" font-size="14" text-anchor="middle">r  [h^-1 Mpc]</text><text x="15" y="190" font-size="14" text-anchor="middle" transform="rotate(-90,15,190)">CDF_k(r)</text><text x="262.5" y="22" font-size="18" text-anchor="middle">kNN-CDF vs Erlang (RR)</text><path d="M 62.660000000000004 84.71000000000001 L 66.32000000000001 84.71000000000001 L 69.99 84.71000000000001 L 73.65 84.71000000000001 L 77.31 84.71000000000001 L 80.97 84.71000000000001 L 84.64 84.71000000000001 L 88.3 84.71000000000001 L 91.96000000000001 84.71000000000001 L 95.62 84.71000000000001 L 99.28 84.71000000000001 L 102.95 84.71000000000001 L 106.61 84.71000000000001 L 110.27 84.71000000000001 L 113.93 84.71000000000001 L 117.60000000000001 84.71000000000001 L 121.26 84.71000000000001 L 124.92 84.71000000000001 L 128.58 84.71000000000001 L 132.25 84.71000000000001 L 135.91 84.71000000000001 L 139.57 84.71000000000001 L 143.23 84.71000000000001 L 146.89000000000001 84.71000000000001 L 150.56 84.71000000000001 L 154.22 84.71000000000001 L 157.88 84.71000000000001 L 161.54 84.71000000000001 L 165.21 84.71000000000001 L 168.87 84.71000000000001 L 172.53 84.71000000000001 L 176.19 84.71000000000001 L 179.85 84.71000000000001 L 183.52 84.71000000000001 L 187.18 84.71000000000001 L 190.84 84.71000000000001 L 194.5 84.71000000000001 L 198.17000000000002 84.71000000000001 L 201.83 84.71000000000001 L 205.49 84.71000000000001 L 209.15 84.71000000000001 L 212.81 84.71000000000001 L 216.48000000000002 84.71000000000001 L 220.14000000000001 84.71000000000001 L 223.8 84.71000000000001 L 227.46 84.71000000000001 L 231.13 84.71000000000001 L 234.79 84.71000000000001 L 238.45000000000002 84.71000000000001 L 242.11 84.71000000000001 L 245.77 84.71000000000001 L 249.44 84.71000000000001 L 253.1 84.71000000000001 L 256.76 84.71000000000001 L 260.42 84.71000000000001 L 264.09000000000003 84.71000000000001 L 267.75 84.71000000000001 L 271.41 84.71000000000001 L 275.07 84.71000000000001 L 278.74 84.71000000000001 L 282.40000000000003 84.71000000000001 L 286.06 84.71000000000001 L 289.72 84.71000000000001 L 293.38 84.71000000000001 L 297.05 84.71000000000001 L 300.71 84.71000000000001 L 304.37 84.71000000000001 L 308.03000000000003 84.71000000000001 L 311.7 84.71000000000001 L 315.36 84.71000000000001 L 319.02 84.71000000000001 L 322.68 84.71000000000001 L 326.34000000000003 84.71000000000001 L 330.01 84.71000000000001 L 333.67 84.71000000000001 L 337.33 84.71000000000001 L 340.99 84.71000000000001 L 344.66 84.71000000000001 L 348.32 84.71000000000001 L 351.98 84.71000000000001 L 355.64 84.71000000000001 L 359.3 84.71000000000001 L 362.97 84.71000000000001 L 366.63 84.71000000000001 L 370.29 84.71000000000001 L 373.95 84.71000000000001 L 377.62 84.71000000000001 L 381.28000000000003 84.71000000000001 L 384.94 84.71000000000001 L 388.6 84.71000000000001 L 392.26 84.71000000000001 L 395.93 84.71000000000001 L 399.59000000000003 84.71000000000001 L 403.25 84.71000000000001 L 406.91 84.71000000000001 L 410.58 84.71000000000001 L 414.24 84.71000000000001 L 417.90000000000003 84.71000000000001 L 421.56 84.71000000000001 L 425.23 84.71000000000001 " stroke="#4682b4" stroke-width="1.5" fill="none" /><path d="M 62.660000000000004 288.25 L 66.32000000000001 288.03000000000003 L 69.99 287.43 L 73.65 286.26 L 77.31 284.35 L 80.97 281.53000000000003 L 84.64 277.66 L 88.3 272.63 L 91.96000000000001 266.37 L 95.62 258.84000000000003 L 99.28 250.06 L 102.95 240.12 L 106.61 229.14000000000001 L 110.27 217.3 L 113.93 204.86 L 117.60000000000001 192.06 L 121.26 179.19 L 124.92 166.55 L 128.58 154.42000000000002 L 132.25 143.04 L 135.91 132.61 L 139.57 123.28 L 143.23 115.13 L 146.89000000000001 108.19 L 150.56 102.43 L 154.22 97.78 L 157.88 94.11 L 161.54 91.31 L 165.21 89.22 L 168.87 87.71000000000001 L 172.53 86.65 L 176.19 85.93 L 179.85 85.46000000000001 L 183.52 85.15 L 187.18 84.97 L 190.84 84.85000000000001 L 194.5 84.79 L 198.17000000000002 84.75 L 201.83 84.73 L 205.49 84.72 L 209.15 84.72 L 212.81 84.72 L 216.48000000000002 84.72 L 220.14000000000001 84.71000000000001 L 223.8 84.71000000000001 L 227.46 84.71000000000001 L 231.13 84.71000000000001 L 234.79 84.71000000000001 L 238.45000000000002 84.71000000000001 L 242.11 84.71000000000001 L 245.77 84.71000000000001 L 249.44 84.71000000000001 L 253.1 84.71000000000001 L 256.76 84.71000000000001 L 260.42 84.71000000000001 L 264.09000000000003 84.71000000000001 L 267.75 84.71000000000001 L 271.41 84.71000000000001 L 275.07 84.71000000000001 L 278.74 84.71000000000001 L 282.40000000000003 84.71000000000001 L 286.06 84.71000000000001 L 289.72 84.71000000000001 L 293.38 84.71000000000001 L 297.05 84.71000000000001 L 300.71 84.71000000000001 L 304.37 84.71000000000001 L 308.03000000000003 84.71000000000001 L 311.7 84.71000000000001 L 315.36 84.71000000000001 L 319.02 84.71000000000001 L 322.68 84.71000000000001 L 326.34000000000003 84.71000000000001 L 330.01 84.71000000000001 L 333.67 84.71000000000001 L 337.33 84.71000000000001 L 340.99 84.71000000000001 L 344.66 84.71000000000001 L 348.32 84.71000000000001 L 351.98 84.71000000000001 L 355.64 84.71000000000001 L 359.3 84.71000000000001 L 362.97 84.71000000000001 L 366.63 84.71000000000001 L 370.29 84.71000000000001 L 373.95 84.71000000000001 L 377.62 84.71000000000001 L 381.28000000000003 84.71000000000001 L 384.94 84.71000000000001 L 388.6 84.71000000000001 L 392.26 84.71000000000001 L 395.93 84.71000000000001 L 399.59000000000003 84.71000000000001 L 403.25 84.71000000000001 L 406.91 84.71000000000001 L 410.58 84.71000000000001 L 414.24 84.71000000000001 L 417.90000000000003 84.71000000000001 L 421.56 84.71000000000001 L 425.23 84.71000000000001 " stroke="#000000" stroke-width="0.8" fill="none" stroke-dasharray="8 4" /><path d="M 62.660000000000004 288.27 L 66.32000000000001 288.08 L 69.99 287.51 L 73.65 286.21 L 77.31 284.40000000000003 L 80.97 281.71 L 84.64 277.48 L 88.3 272.41 L 91.96000000000001 266.5 L 95.62 259.13 L 99.28 250.44 L 102.95 239.82 L 106.61 228.92000000000002 L 110.27 217.06 L 113.93 204.84 L 117.60000000000001 191.89000000000001 L 121.26 179.03 L 124.92 166.55 L 128.58 154.27 L 132.25 143.0 L 135.91 132.33 L 139.57 122.95 L 143.23 114.99000000000001 L 146.89000000000001 108.27 L 150.56 102.61 L 154.22 97.7 L 157.88 93.9 L 161.54 91.62 L 165.21 89.72 L 168.87 88.07000000000001 L 172.53 86.75 L 176.19 86.10000000000001 L 179.85 85.65 L 183.52 85.28 L 187.18 85.06 L 190.84 84.92 L 194.5 84.84 L 198.17000000000002 84.78 L 201.83 84.76 L 205.49 84.73 L 209.15 84.71000000000001 L 212.81 84.71000000000001 L 216.48000000000002 84.71000000000001 L 220.14000000000001 84.71000000000001 L 223.8 84.71000000000001 L 227.46 84.71000000000001 L 231.13 84.71000000000001 L 234.79 84.71000000000001 L 238.45000000000002 84.71000000000001 L 242.11 84.71000000000001 L 245.77 84.71000000000001 L 249.44 84.71000000000001 L 253.1 84.71000000000001 L 256.76 84.71000000000001 L 260.42 84.71000000000001 L 264.09000000000003 84.71000000000001 L 267.75 84.71000000000001 L 271.41 84.71000000000001 L 275.07 84.71000000000001 L 278.74 84.71000000000001 L 282.40000000000003 84.71000000000001 L 286.06 84.71000000000001 L 289.72 84.71000000000001 L 293.38 84.71000000000001 L 297.05 84.71000000000001 L 300.71 84.71000000000001 L 304.37 84.71000000000001 L 308.03000000000003 84.71000000000001 L 311.7 84.71000000000001 L 315.36 84.71000000000001 L 319.02 84.71000000000001 L 322.68 84.71000000000001 L 326.34000000000003 84.71000000000001 L 330.01 84.71000000000001 L 333.67 84.71000000000001 L 337.33 84.71000000000001 L 340.99 84.71000000000001 L 344.66 84.71000000000001 L 348.32 84.71000000000001 L 351.98 84.71000000000001 L 355.64 84.71000000000001 L 359.3 84.71000000000001 L 362.97 84.71000000000001 L 366.63 84.71000000000001 L 370.29 84.71000000000001 L 373.95 84.71000000000001 L 377.62 84.71000000000001 L 381.28000000000003 84.71000000000001 L 384.94 84.71000000000001 L 388.6 84.71000000000001 L 392.26 84.71000000000001 L 395.93 84.71000000000001 L 399.59000000000003 84.71000000000001 L 403.25 84.71000000000001 L 406.91 84.71000000000001 L 410.58 84.71000000000001 L 414.24 84.71000000000001 L 417.90000000000003 84.71000000000001 L 421.56 84.71000000000001 L 425.23 84.71000000000001 " stroke="#dc143c" stroke-width="1.5" fill="none" /><path d="M 62.660000000000004 288.29 L 66.32000000000001 288.29 L 69.99 288.28000000000003 L 73.65 288.28000000000003 L 77.31 288.25 L 80.97 288.17 L 84.64 288.0 L 88.3 287.67 L 91.96000000000001 287.06 L 95.62 286.05 L 99.28 284.45 L 102.95 282.08 L 106.61 278.71 L 110.27 274.15000000000003 L 113.93 268.21 L 117.60000000000001 260.75 L 121.26 251.72 L 124.92 241.13 L 128.58 229.13 L 132.25 215.94 L 135.91 201.91 L 139.57 187.43 L 143.23 172.95000000000002 L 146.89000000000001 158.9 L 150.56 145.69 L 154.22 133.65 L 157.88 123.02 L 161.54 113.92 L 165.21 106.39 L 168.87 100.35000000000001 L 172.53 95.67 L 176.19 92.16 L 179.85 89.62 L 183.52 87.84 L 187.18 86.65 L 190.84 85.87 L 194.5 85.38 L 198.17000000000002 85.08 L 201.83 84.91 L 205.49 84.82000000000001 L 209.15 84.76 L 212.81 84.74 L 216.48000000000002 84.73 L 220.14000000000001 84.72 L 223.8 84.72 L 227.46 84.72 L 231.13 84.71000000000001 L 234.79 84.71000000000001 L 238.45000000000002 84.71000000000001 L 242.11 84.71000000000001 L 245.77 84.71000000000001 L 249.44 84.71000000000001 L 253.1 84.71000000000001 L 256.76 84.71000000000001 L 260.42 84.71000000000001 L 264.09000000000003 84.71000000000001 L 267.75 84.71000000000001 L 271.41 84.71000000000001 L 275.07 84.71000000000001 L 278.74 84.71000000000001 L 282.40000000000003 84.71000000000001 L 286.06 84.71000000000001 L 289.72 84.71000000000001 L 293.38 84.71000000000001 L 297.05 84.71000000000001 L 300.71 84.71000000000001 L 304.37 84.71000000000001 L 308.03000000000003 84.71000000000001 L 311.7 84.71000000000001 L 315.36 84.71000000000001 L 319.02 84.71000000000001 L 322.68 84.71000000000001 L 326.34000000000003 84.71000000000001 L 330.01 84.71000000000001 L 333.67 84.71000000000001 L 337.33 84.71000000000001 L 340.99 84.71000000000001 L 344.66 84.71000000000001 L 348.32 84.71000000000001 L 351.98 84.71000000000001 L 355.64 84.71000000000001 L 359.3 84.71000000000001 L 362.97 84.71000000000001 L 366.63 84.71000000000001 L 370.29 84.71000000000001 L 373.95 84.71000000000001 L 377.62 84.71000000000001 L 381.28000000000003 84.71000000000001 L 384.94 84.71000000000001 L 388.6 84.71000000000001 L 392.26 84.71000000000001 L 395.93 84.71000000000001 L 399.59000000000003 84.71000000000001 L 403.25 84.71000000000001 L 406.91 84.71000000000001 L 410.58 84.71000000000001 L 414.24 84.71000000000001 L 417.90000000000003 84.71000000000001 L 421.56 84.71000000000001 L 425.23 84.71000000000001 " stroke="#000000" stroke-width="0.8" fill="none" stroke-dasharray="8 4" /><path d="M 62.660000000000004 288.29 L 66.32000000000001 288.29 L 69.99 288.29 L 73.65 288.29 L 77.31 288.29 L 80.97 288.29 L 84.64 288.29 L 88.3 288.29 L 91.96000000000001 288.27 L 95.62 288.22 L 99.28 288.02 L 102.95 287.72 L 106.61 286.94 L 110.27 286.09000000000003 L 113.93 284.38 L 117.60000000000001 282.16 L 121.26 279.27 L 124.92 274.63 L 128.58 268.91 L 132.25 261.01 L 135.91 251.36 L 139.57 241.02 L 143.23 227.91 L 146.89000000000001 214.49 L 150.56 199.24 L 154.22 182.9 L 157.88 167.93 L 161.54 153.16 L 165.21 139.09 L 168.87 127.32000000000001 L 172.53 116.82000000000001 L 176.19 108.37 L 179.85 101.81 L 183.52 96.89 L 187.18 92.9 L 190.84 90.01 L 194.5 88.15 L 198.17000000000002 86.73 L 201.83 85.98 L 205.49 85.39 L 209.15 85.08 L 212.81 84.94 L 216.48000000000002 84.78 L 220.14000000000001 84.73 L 223.8 84.71000000000001 L 227.46 84.71000000000001 L 231.13 84.71000000000001 L 234.79 84.71000000000001 L 238.45000000000002 84.71000000000001 L 242.11 84.71000000000001 L 245.77 84.71000000000001 L 249.44 84.71000000000001 L 253.1 84.71000000000001 L 256.76 84.71000000000001 L 260.42 84.71000000000001 L 264.09000000000003 84.71000000000001 L 267.75 84.71000000000001 L 271.41 84.71000000000001 L 275.07 84.71000000000001 L 278.74 84.71000000000001 L 282.40000000000003 84.71000000000001 L 286.06 84.71000000000001 L 289.72 84.71000000000001 L 293.38 84.71000000000001 L 297.05 84.71000000000001 L 300.71 84.71000000000001 L 304.37 84.71000000000001 L 308.03000000000003 84.71000000000001 L 311.7 84.71000000000001 L 315.36 84.71000000000001 L 319.02 84.71000000000001 L 322.68 84.71000000000001 L 326.34000000000003 84.71000000000001 L 330.01 84.71000000000001 L 333.67 84.71000000000001 L 337.33 84.71000000000001 L 340.99 84.71000000000001 L 344.66 84.71000000000001 L 348.32 84.71000000000001 L 351.98 84.71000000000001 L 355.64 84.71000000000001 L 359.3 84.71000000000001 L 362.97 84.71000000000001 L 366.63 84.71000000000001 L 370.29 84.71000000000001 L 373.95 84.71000000000001 L 377.62 84.71000000000001 L 381.28000000000003 84.71000000000001 L 384.94 84.71000000000001 L 388.6 84.71000000000001 L 392.26 84.71000000000001 L 395.93 84.71000000000001 L 399.59000000000003 84.71000000000001 L 403.25 84.71000000000001 L 406.91 84.71000000000001 L 410.58 84.71000000000001 L 414.24 84.71000000000001 L 417.90000000000003 84.71000000000001 L 421.56 84.71000000000001 L 425.23 84.71000000000001 " stroke="seagreen" stroke-width="1.5" fill="none" /><path d="M 62.660000000000004 288.29 L 66.32000000000001 288.29 L 69.99 288.29 L 73.65 288.29 L 77.31 288.29 L 80.97 288.29 L 84.64 288.29 L 88.3 288.29 L 91.96000000000001 288.28000000000003 L 95.62 288.28000000000003 L 99.28 288.27 L 102.95 288.25 L 106.61 288.2 L 110.27 288.08 L 113.93 287.85 L 117.60000000000001 287.43 L 121.26 286.68 L 124.92 285.43 L 128.58 283.46 L 132.25 280.5 L 135.91 276.24 L 139.57 270.4 L 143.23 262.74 L 146.89000000000001 253.1 L 150.56 241.47 L 154.22 228.0 L 157.88 213.03 L 161.54 197.05 L 165.21 180.65 L 168.87 164.5 L 172.53 149.22 L 176.19 135.32 L 179.85 123.19 L 183.52 113.02 L 187.18 104.84 L 190.84 98.53 L 194.5 93.85000000000001 L 198.17000000000002 90.54 L 201.83 88.29 L 205.49 86.82000000000001 L 209.15 85.9 L 212.81 85.36 L 216.48000000000002 85.05 L 220.14000000000001 84.88 L 223.8 84.79 L 227.46 84.75 L 231.13 84.73 L 234.79 84.72 L 238.45000000000002 84.72 L 242.11 84.72 L 245.77 84.71000000000001 L 249.44 84.71000000000001 L 253.1 84.71000000000001 L 256.76 84.71000000000001 L 260.42 84.71000000000001 L 264.09000000000003 84.71000000000001 L 267.75 84.71000000000001 L 271.41 84.71000000000001 L 275.07 84.71000000000001 L 278.74 84.71000000000001 L 282.40000000000003 84.71000000000001 L 286.06 84.71000000000001 L 289.72 84.71000000000001 L 293.38 84.71000000000001 L 297.05 84.71000000000001 L 300.71 84.71000000000001 L 304.37 84.71000000000001 L 308.03000000000003 84.71000000000001 L 311.7 84.71000000000001 L 315.36 84.71000000000001 L 319.02 84.71000000000001 L 322.68 84.71000000000001 L 326.34000000000003 84.71000000000001 L 330.01 84.71000000000001 L 333.67 84.71000000000001 L 337.33 84.71000000000001 L 340.99 84.71000000000001 L 344.66 84.71000000000001 L 348.32 84.71000000000001 L 351.98 84.71000000000001 L 355.64 84.71000000000001 L 359.3 84.71000000000001 L 362.97 84.71000000000001 L 366.63 84.71000000000001 L 370.29 84.71000000000001 L 373.95 84.71000000000001 L 377.62 84.71000000000001 L 381.28000000000003 84.71000000000001 L 384.94 84.71000000000001 L 388.6 84.71000000000001 L 392.26 84.71000000000001 L 395.93 84.71000000000001 L 399.59000000000003 84.71000000000001 L 403.25 84.71000000000001 L 406.91 84.71000000000001 L 410.58 84.71000000000001 L 414.24 84.71000000000001 L 417.90000000000003 84.71000000000001 L 421.56 84.71000000000001 L 425.23 84.71000000000001 " stroke="#000000" stroke-width="0.8" fill="none" stroke-dasharray="8 4" /><path d="M 62.660000000000004 288.29 L 66.32000000000001 288.29 L 69.99 288.29 L 73.65 288.29 L 77.31 288.29 L 80.97 288.29 L 84.64 288.29 L 88.3 288.29 L 91.96000000000001 288.29 L 95.62 288.29 L 99.28 288.29 L 102.95 288.29 L 106.61 288.29 L 110.27 288.29 L 113.93 288.29 L 117.60000000000001 288.29 L 121.26 288.29 L 124.92 288.29 L 128.58 288.25 L 132.25 288.22 L 135.91 288.12 L 139.57 287.90000000000003 L 143.23 287.27 L 146.89000000000001 286.53000000000003 L 150.56 285.13 L 154.22 283.34000000000003 L 157.88 280.16 L 161.54 275.62 L 165.21 269.39 L 168.87 260.44 L 172.53 249.0 L 176.19 235.01 L 179.85 219.6 L 183.52 203.44 L 187.18 185.71 L 190.84 167.57 L 194.5 151.81 L 198.17000000000002 136.75 L 201.83 123.37 L 205.49 111.85000000000001 L 209.15 103.28 L 212.81 97.23 L 216.48000000000002 92.45 L 220.14000000000001 89.46000000000001 L 223.8 87.48 L 227.46 86.42 L 231.13 85.47 L 234.79 85.14 L 238.45000000000002 84.98 L 242.11 84.86 L 245.77 84.76 L 249.44 84.71000000000001 L 253.1 84.71000000000001 L 256.76 84.71000000000001 L 260.42 84.71000000000001 L 264.09000000000003 84.71000000000001 L 267.75 84.71000000000001 L 271.41 84.71000000000001 L 275.07 84.71000000000001 L 278.74 84.71000000000001 L 282.40000000000003 84.71000000000001 L 286.06 84.71000000000001 L 289.72 84.71000000000001 L 293.38 84.71000000000001 L 297.05 84.71000000000001 L 300.71 84.71000000000001 L 304.37 84.71000000000001 L 308.03000000000003 84.71000000000001 L 311.7 84.71000000000001 L 315.36 84.71000000000001 L 319.02 84.71000000000001 L 322.68 84.71000000000001 L 326.34000000000003 84.71000000000001 L 330.01 84.71000000000001 L 333.67 84.71000000000001 L 337.33 84.71000000000001 L 340.99 84.71000000000001 L 344.66 84.71000000000001 L 348.32 84.71000000000001 L 351.98 84.71000000000001 L 355.64 84.71000000000001 L 359.3 84.71000000000001 L 362.97 84.71000000000001 L 366.63 84.71000000000001 L 370.29 84.71000000000001 L 373.95 84.71000000000001 L 377.62 84.71000000000001 L 381.28000000000003 84.71000000000001 L 384.94 84.71000000000001 L 388.6 84.71000000000001 L 392.26 84.71000000000001 L 395.93 84.71000000000001 L 399.59000000000003 84.71000000000001 L 403.25 84.71000000000001 L 406.91 84.71000000000001 L 410.58 84.71000000000001 L 414.24 84.71000000000001 L 417.90000000000003 84.71000000000001 L 421.56 84.71000000000001 L 425.23 84.71000000000001 " stroke="#ff8c00" stroke-width="1.5" fill="none" /><path d="M 62.660000000000004 288.29 L 66.32000000000001 288.29 L 69.99 288.29 L 73.65 288.29 L 77.31 288.29 L 80.97 288.29 L 84.64 288.29 L 88.3 288.29 L 91.96000000000001 288.29 L 95.62 288.29 L 99.28 288.29 L 102.95 288.29 L 106.61 288.29 L 110.27 288.29 L 113.93 288.29 L 117.60000000000001 288.29 L 121.26 288.29 L 124.92 288.28000000000003 L 128.58 288.28000000000003 L 132.25 288.28000000000003 L 135.91 288.26 L 139.57 288.22 L 143.23 288.12 L 146.89000000000001 287.93 L 150.56 287.53000000000003 L 154.22 286.8 L 157.88 285.51 L 161.54 283.37 L 165.21 280.01 L 168.87 275.01 L 172.53 267.95 L 176.19 258.52 L 179.85 246.56 L 183.52 232.16 L 187.18 215.70000000000002 L 190.84 197.82 L 194.5 179.37 L 198.17000000000002 161.28 L 201.83 144.44 L 205.49 129.54 L 209.15 117.03 L 212.81 107.05 L 216.48000000000002 99.49000000000001 L 220.14000000000001 94.06 L 223.8 90.36 L 227.46 87.96000000000001 L 231.13 86.49 L 234.79 85.64 L 238.45000000000002 85.17 L 242.11 84.93 L 245.77 84.81 L 249.44 84.76 L 253.1 84.73 L 256.76 84.72 L 260.42 84.72 L 264.09000000000003 84.72 L 267.75 84.71000000000001 L 271.41 84.71000000000001 L 275.07 84.71000000000001 L 278.74 84.71000000000001 L 282.40000000000003 84.71000000000001 L 286.06 84.71000000000001 L 289.72 84.71000000000001 L 293.38 84.71000000000001 L 297.05 84.71000000000001 L 300.71 84.71000000000001 L 304.37 84.71000000000001 L 308.03000000000003 84.71000000000001 L 311.7 84.71000000000001 L 315.36 84.71000000000001 L 319.02 84.71000000000001 L 322.68 84.71000000000001 L 326.34000000000003 84.71000000000001 L 330.01 84.71000000000001 L 333.67 84.71000000000001 L 337.33 84.71000000000001 L 340.99 84.71000000000001 L 344.66 84.71000000000001 L 348.32 84.71000000000001 L 351.98 84.71000000000001 L 355.64 84.71000000000001 L 359.3 84.71000000000001 L 362.97 84.71000000000001 L 366.63 84.71000000000001 L 370.29 84.71000000000001 L 373.95 84.71000000000001 L 377.62 84.71000000000001 L 381.28000000000003 84.71000000000001 L 384.94 84.71000000000001 L 388.6 84.71000000000001 L 392.26 84.71000000000001 L 395.93 84.71000000000001 L 399.59000000000003 84.71000000000001 L 403.25 84.71000000000001 L 406.91 84.71000000000001 L 410.58 84.71000000000001 L 414.24 84.71000000000001 L 417.90000000000003 84.71000000000001 L 421.56 84.71000000000001 L 425.23 84.71000000000001 " stroke="#000000" stroke-width="0.8" fill="none" stroke-dasharray="8 4" /></g><text x="513" y="453" font-size="16" text-anchor="start" font-weight="bold">D</text><text x="553" y="22" font-size="20" text-anchor="middle">CoxMock Validation: kNN Landy-Szalay Estimator</text><rect x="1000" y="363.5" width="91" height="128" fill="#ffffff" /><rect x="1000" y="363.5" width="91" height="128" fill="none" stroke="#000000" stroke-width="1" /><text x="1030" y="382.7" font-size="12" text-anchor="start">kNN LS</text><line x1="1010" y1="378.5" x2="1022" y2="378.5" stroke="#4682b4" stroke-width="2" /><text x="1030" y="400.7" font-size="12" text-anchor="start">Analytic</text><line x1="1010" y1="396.5" x2="1022" y2="396.5" stroke="#000000" stroke-width="2" stroke-dasharray="8 4" /><text x="1030" y="418.7" font-size="12" text-anchor="start">k=1</text><line x1="1010" y1="414.5" x2="1022" y2="414.5" stroke="#4682b4" stroke-width="2" /><text x="1030" y="436.7" font-size="12" text-anchor="start">k=2</text><line x1="1010" y1="432.5" x2="1022" y2="432.5" stroke="#dc143c" stroke-width="2" /><text x="1030" y="454.7" font-size="12" text-anchor="start">k=4</text><line x1="1010" y1="450.5" x2="1022" y2="450.5" stroke="seagreen" stroke-width="2" /><text x="1030" y="472.7" font-size="12" text-anchor="start">k=8</text><line x1="1010" y1="468.5" x2="1022" y2="468.5" stroke="#ff8c00" stroke-width="2" /></svg>