<svg xmlns="http://www.w3.org/2000/svg" width="700" height="500" font-family="DejaVu Sans, Liberation Sans, Arial, sans-serif" fill="black"><rect width="100%" height="100%" fill="white" /><line x1="63.800000000000004" y1="449" x2="583" y2="449" stroke="#000000" stroke-width="1" /><line x1="63.800000000000004" y1="44" x2="63.800000000000004" y2="449" stroke="#000000" stroke-width="1" /><line x1="167.64000000000001" y1="44" x2="167.64000000000001" y2="449" stroke="#cccccc" stroke-width="1" /><line x1="271.48" y1="44" x2="271.48" y2="449" stroke="#cccccc" stroke-width="1" /><line x1="375.32" y1="44" x2="375.32" y2="449" stroke="#cccccc" stroke-width="1" /><line x1="479.16" y1="44" x2="479.16" y2="449" stroke="#cccccc" stroke-width="1" /><line x1="583" y1="44" x2="583" y2="449" stroke="#cccccc" stroke-width="1" /><line x1="63.800000000000004" y1="381.5" x2="583" y2="381.5" stroke="#cccccc" stroke-width="1" /><line x1="63.800000000000004" y1="314" x2="583" y2="314" stroke="#cccccc" stroke-width="1" /><line x1="63.800000000000004" y1="246.5" x2="583" y2="246.5" stroke="#cccccc" stroke-width="1" /><line x1="63.800000000000004" y1="179" x2="583" y2="179" stroke="#cccccc" stroke-width="1" /><line x1="63.800000000000004" y1="111.5" x2="583" y2="111.5" stroke="#cccccc" stroke-width="1" /><line x1="63.800000000000004" y1="44" x2="583" y2="44" stroke="#cccccc" stroke-width="1" /><line x1="63.800000000000004" y1="449" x2="63.800000000000004" y2="454" stroke="#000000" stroke-width="1" /><text x="63.800000000000004" y="466" font-size="12" text-anchor="middle">0</text><line x1="167.64000000000001" y1="449" x2="167.64000000000001" y2="454" stroke="#000000" stroke-width="1" /><text x="167.64000000000001" y="466" font-size="12" text-anchor="middle">10</text><line x1="271.48" y1="449" x2="271.48" y2="454" stroke="#000000" stroke-width="1" /><text x="271.48" y="466" font-size="12" text-anchor="middle">20</text><line x1="375.32" y1="449" x2="375.32" y2="454" stroke="#000000" stroke-width="1" /><text x="375.32" y="466" font-size="12" text-anchor="middle">30</text><line x1="479.16" y1="449" x2="479.16" y2="454" stroke="#000000" stroke-width="1" /><text x="479.16" y="466" font-size="12" text-anchor="middle">40</text><line x1="583" y1="449" x2="583" y2="454" stroke="#000000" stroke-width="1" /><text x="583" y="466" font-size="12" text-anchor="middle">50</text><line x1="58.800000000000004" y1="449" x2="63.800000000000004" y2="449" stroke="#000000" stroke-width="1" /><text x="55.800000000000004" y="453.2" font-size="12" text-anchor="end">-0.25</text><line x1="58.800000000000004" y1="381.5" x2="63.800000000000004" y2="381.5" stroke="#000000" stroke-width="1" /><text x="55.800000000000004" y="385.7" font-size="12" text-anchor="end">0</text><line x1="58.800000000000004" y1="314" x2="63.800000000000004" y2="314" stroke="#000000" stroke-width="1" /><text x="55.800000000000004" y="318.2" font-size="12" text-anchor="end">0.25</text><line x1="58.800000000000004" y1="246.5" x2="63.800000000000004" y2="246.5" stroke="#000000" stroke-width="1" /><text x="55.800000000000004" y="250.70000000000002" font-size="12" text-anchor="end">0.5</text><line x1="58.800000000000004" y1="179" x2="63.800000000000004" y2="179" stroke="#000000" stroke-width="1" /><text x="55.800000000000004" y="183.20000000000002" font-size="12" text-anchor="end">0.75</text><line x1="58.800000000000004" y1="111.5" x2="63.800000000000004" y2="111.5" stroke="#000000" stroke-width="1" /><text x="55.800000000000004" y="115.7" font-size="12" text-anchor="end">1</text><line x1="58.800000000000004" y1="44" x2="63.800000000000004" y2="44" stroke="#000000" stroke-width="1" /><text x="55.800000000000004" y="48.2" font-size="12" text-anchor="end">1.25</text><text x="323.40000000000003" y="493" font-size="14" text-anchor="middle">r  [h^-1 Mpc]</text><text x="15" y="250" font-size="14" text-anchor="middle" transform="rotate(-90,15,250)">xi(r)</text><text x="323.40000000000003" y="22" font-size="18" text-anchor="middle">Individual Mock Realizations</text><path d="M 102.74000000000001 105.77 L 118.32000000000001 99.78 L 133.89000000000001 348.66 L 149.47 378.25 L 165.04 385.90000000000003 L 180.62 367.05 L 196.20000000000002 326.49 L 211.77 360.64 L 227.35 370.38 L 242.92000000000002 373.88 L 258.5 370.97 L 274.08 361.42 L 289.65000000000003 394.06 L 305.23 375.2 L 320.8 380.21 L 336.38 368.2 L 351.96 368.28000000000003 L 367.53000000000003 378.14 L 383.11 392.34000000000003 L 398.68 382.64 L 414.26 387.57 L 429.84000000000003 381.5 L 445.41 376.26 L 460.99 374.63 L 476.56 375.01 L 492.14 384.51 L 507.72 378.01 L 523.29 382.93 L 538.87 381.2 L 554.44 385.96000000000004 " stroke="#b8d4f0" stroke-width="0.7000000000000001" fill="none" /><path d="M 102.74000000000001 53.36 L 118.32000000000001 298.56 L 133.89000000000001 257.2 L 149.47 326.91 L 165.04 273.71 L 180.62 342.94 L 196.20000000000002 370.77 L 211.77 378.18 L 227.35 369.68 L 242.92000000000002 365.42 L 258.5 377.46 L 274.08 362.22 L 289.65000000000003 366.35 L 305.23 370.6 L 320.8 354.49 L 336.38 379.75 L 351.96 399.22 L 367.53000000000003 397.32 L 383.11 373.44 L 398.68 373.39 L 414.26 387.44 L 429.84000000000003 386.95 L 445.41 375.02 L 460.99 379.42 L 476.56 379.79 L 492.14 390.03000000000003 L 507.72 390.46000000000004 L 523.29 371.94 L 538.87 383.8 L 554.44 373.59000000000003 " stroke="#a0c4e8" stroke-width="0.7000000000000001" fill="none" /><path d="M 102.74000000000001 305.0 L 118.32000000000001 304.01 L 133.89000000000001 309.3 L 149.47 379.5 L 165.04 353.65000000000003 L 180.62 332.56 L 196.20000000000002 377.49 L 211.77 362.8 L 227.35 354.57 L 242.92000000000002 369.82 L 258.5 355.51 L 274.08 381.14 L 289.65000000000003 365.97 L 305.23 382.38 L 320.8 371.78000000000003 L 336.38 373.69 L 351.96 371.3 L 367.53000000000003 387.35 L 383.11 378.63 L 398.68 370.86 L 414.26 384.40000000000003 L 429.84000000000003 388.02 L 445.41 391.74 L 460.99 378.54 L 476.56 363.38 L 492.14 387.23 L 507.72 375.23 L 523.29 390.2 L 538.87 383.13 L 554.44 383.92 " stroke="#c0d8f4" stroke-width="0.7000000000000001" fill="none" /><path d="M 102.74000000000001 208.67000000000002 L 118.32000000000001 188.97 L 133.89000000000001 336.92 L 149.47 339.14 L 165.04 322.56 L 180.62 350.91 L 196.20000000000002 355.16 L 211.77 403.46000000000004 L 227.35 315.27 L 242.92000000000002 368.82 L 258.5 376.63 L 274.08 360.11 L 289.65000000000003 393.45 L 305.23 393.88 L 320.8 372.58 L 336.38 372.51 L 351.96 368.74 L 367.53000000000003 380.27 L 383.11 381.09000000000003 L 398.68 378.2 L 414.26 380.52 L 429.84000000000003 375.21 L 445.41 378.92 L 460.99 365.22 L 476.56 375.62 L 492.14 384.06 L 507.72 381.8 L 523.29 372.26 L 538.87 376.31 L 554.44 389.48 " stroke="#90b4d8" stroke-width="0.7000000000000001" fill="none" /><path d="M 102.74000000000001 213.81 L 118.32000000000001 336.40000000000003 L 133.89000000000001 329.01 L 149.47 263.74 L 165.04 406.04 L 180.62 358.77 L 196.20000000000002 355.42 L 211.77 351.93 L 227.35 338.17 L 242.92000000000002 363.35 L 258.5 346.27 L 274.08 374.13 L 289.65000000000003 380.24 L 305.23 349.69 L 320.8 397.33 L 336.38 378.36 L 351.96 381.55 L 367.53000000000003 370.08 L 383.11 379.85 L 398.68 379.66 L 414.26 396.09000000000003 L 429.84000000000003 369.94 L 445.41 386.29 L 460.99 378.51 L 476.56 386.65000000000003 L 492.14 372.63 L 507.72 382.36 L 523.29 371.63 L 538.87 374.31 L 554.44 375.48 " stroke="#a8cce8" stroke-width="0.7000000000000001" fill="none" /><path d="M 102.74000000000001 177.32 L 118.32000000000001 245.54 L 133.89000000000001 316.22 L 149.47 337.51 L 165.04 348.37 L 180.62 350.45 L 196.20000000000002 357.07 L 211.77 371.40000000000003 L 227.35 349.61 L 242.92000000000002 368.26 L 258.5 365.37 L 274.08 367.8 L 289.65000000000003 380.01 L 305.23 374.35 L 320.8 375.28000000000003 L 336.38 374.5 L 351.96 377.82 L 367.53000000000003 382.63 L 383.11 381.07 L 398.68 376.95 L 414.26 387.2 L 429.84000000000003 380.32 L 445.41 381.64 L 460.99 375.26 L 476.56 376.09000000000003 L 492.14 383.69 L 507.72 381.57 L 523.29 377.79 L 538.87 379.75 L 554.44 381.69 " stroke="#4682b4" stroke-width="2.5" fill="none" /><path d="M 94.95 381.5 L 96.51 381.5 L 98.08 381.5 L 99.64 381.5 L 101.2 381.5 L 102.77 381.5 L 104.33 381.5 L 105.89 381.5 L 107.45 381.5 L 109.02 381.5 L 110.58 381.5 L 112.14 381.5 L 113.71000000000001 381.5 L 115.27 381.5 L 116.83 381.5 L 118.39 381.5 L 119.96000000000001 381.5 L 121.52 381.5 L 123.08 381.5 L 124.65 381.5 L 126.21000000000001 381.5 L 127.77 381.5 L 129.33 381.5 L 130.9 381.5 L 132.46 381.5 L 134.02 381.5 L 135.59 381.5 L 137.15 381.5 L 138.71 381.5 L 140.27 381.5 L 141.84 381.5 L 143.4 381.5 L 144.96 381.5 L 146.52 381.5 L 148.09 381.5 L 149.65 381.5 L 151.21 381.5 L 152.78 381.5 L 154.34 381.5 L 155.9 381.5 L 157.46 381.5 L 159.03 381.5 L 160.59 381.5 L 162.15 381.5 L 163.72 381.5 L 165.28 381.5 L 166.84 381.5 L 168.4 381.5 L 169.97 381.5 L 171.53 381.5 L 173.09 381.5 L 174.66 381.5 L 176.22 381.5 L 177.78 381.5 L 179.34 381.5 L 180.91 381.5 L 182.47 381.5 L 184.03 381.5 L 185.59 381.5 L 187.16 381.5 L 188.72 381.5 L 190.28 381.5 L 191.85 381.5 L 193.41 381.5 L 194.97 381.5 L 196.53 381.5 L 198.1 381.5 L 199.66 381.5 L 201.22 381.5 L 202.79 381.5 L 204.35 381.5 L 205.91 381.5 L 207.47 381.5 L 209.04 381.5 L 210.6 381.5 L 212.16 381.5 L 213.73000000000002 381.5 L 215.29 381.5 L 216.85 381.5 L 218.41 381.5 L 219.98000000000002 381.5 L 221.54 381.5 L 223.1 381.5 L 224.67000000000002 381.5 L 226.23000000000002 381.5 L 227.79 381.5 L 229.35 381.5 L 230.92000000000002 381.5 L 232.48000000000002 381.5 L 234.04 381.5 L 235.6 381.5 L 237.17000000000002 381.5 L 238.73000000000002 381.5 L 240.29 381.5 L 241.86 381.5 L 243.42000000000002 381.5 L 244.98000000000002 381.5 L 246.54 381.5 L 248.11 381.5 L 249.67000000000002 381.5 L 251.23000000000002 381.5 L 252.8 381.5 L 254.36 381.5 L 255.92000000000002 381.5 L 257.48 381.5 L 259.05 381.5 L 260.61 381.5 L 262.17 381.5 L 263.74 381.5 L 265.3 381.5 L 266.86 381.5 L 268.42 381.5 L 269.99 381.5 L 271.55 381.5 L 273.11 381.5 L 274.68 381.5 L 276.24 381.5 L 277.8 381.5 L 279.36 381.5 L 280.93 381.5 L 282.49 381.5 L 284.05 381.5 L 285.61 381.5 L 287.18 381.5 L 288.74 381.5 L 290.3 381.5 L 291.87 381.5 L 293.43 381.5 L 294.99 381.5 L 296.55 381.5 L 298.12 381.5 L 299.68 381.5 L 301.24 381.5 L 302.81 381.5 L 304.37 381.5 L 305.93 381.5 L 307.49 381.5 L 309.06 381.5 L 310.62 381.5 L 312.18 381.5 L 313.75 381.5 L 315.31 381.5 L 316.87 381.5 L 318.43 381.5 L 320.0 381.5 L 321.56 381.5 L 323.12 381.5 L 324.68 381.5 L 326.25 381.5 L 327.81 381.5 L 329.37 381.5 L 330.94 381.5 L 332.5 381.5 L 334.06 381.5 L 335.62 381.5 L 337.19 381.5 L 338.75 381.5 L 340.31 381.5 L 341.88 381.5 L 343.44 381.5 L 345.0 381.5 L 346.56 381.5 L 348.13 381.5 L 349.69 381.5 L 351.25 381.5 L 352.82 381.5 L 354.38 381.5 L 355.94 381.5 L 357.5 381.5 L 359.07 381.5 L 360.63 381.5 L 362.19 381.5 L 363.76 381.5 L 365.32 381.5 L 366.88 381.5 L 368.44 381.5 L 370.01 381.5 L 371.57 381.5 L 373.13 381.5 L 374.69 381.5 L 376.26 381.5 L 377.82 381.5 L 379.38 381.5 L 380.95 381.5 L 382.51 381.5 L 384.07 381.5 L 385.63 381.5 L 387.2 381.5 L 388.76 381.5 L 390.32 381.5 L 391.89 381.5 L 393.45 381.5 L 395.01 381.5 L 396.57 381.5 L 398.14 381.5 L 399.7 381.5 L 401.26 381.5 L 402.83 381.5 L 404.39 381.5 L 405.95 381.5 L 407.51 381.5 L 409.08 381.5 L 410.64 381.5 L 412.2 381.5 L 413.77 381.5 L 415.33 381.5 L 416.89 381.5 L 418.45 381.5 L 420.02 381.5 L 421.58 381.5 L 423.14 381.5 L 424.7 381.5 L 426.27 381.5 L 427.83 381.5 L 429.39 381.5 L 430.96000000000004 381.5 L 432.52 381.5 L 434.08 381.5 L 435.64 381.5 L 437.21000000000004 381.5 L 438.77 381.5 L 440.33 381.5 L 441.90000000000003 381.5 L 443.46000000000004 381.5 L 445.02 381.5 L 446.58 381.5 L 448.15000000000003 381.5 L 449.71000000000004 381.5 L 451.27 381.5 L 452.84000000000003 381.5 L 454.40000000000003 381.5 L 455.96000000000004 381.5 L 457.52 381.5 L 459.09000000000003 381.5 L 460.65000000000003 381.5 L 462.21000000000004 381.5 L 463.78000000000003 381.5 L 465.34000000000003 381.5 L 466.90000000000003 381.5 L 468.46000000000004 381.5 L 470.03000000000003 381.5 L 471.59000000000003 381.5 L 473.15000000000003 381.5 L 474.71000000000004 381.5 L 476.28000000000003 381.5 L 477.84000000000003 381.5 L 479.40000000000003 381.5 L 480.97 381.5 L 482.53000000000003 381.5 L 484.09000000000003 381.5 L 485.65000000000003 381.5 L 487.22 381.5 L 488.78000000000003 381.5 L 490.34000000000003 381.5 L 491.91 381.5 L 493.47 381.5 L 495.03000000000003 381.5 L 496.59000000000003 381.5 L 498.16 381.5 L 499.72 381.5 L 501.28000000000003 381.5 L 502.85 381.5 L 504.41 381.5 L 505.97 381.5 L 507.53000000000003 381.5 L 509.1 381.5 L 510.66 381.5 L 512.22 381.5 L 513.78 381.5 L 515.35 381.5 L 516.91 381.5 L 518.47 381.5 L 520.04 381.5 L 521.6 381.5 L 523.16 381.5 L 524.72 381.5 L 526.29 381.5 L 527.85 381.5 L 529.41 381.5 L 530.98 381.5 L 532.54 381.5 L 534.1 381.5 L 535.66 381.5 L 537.23 381.5 L 538.79 381.5 L 540.35 381.5 L 541.92 381.5 L 543.48 381.5 L 545.04 381.5 L 546.6 381.5 L 548.17 381.5 L 549.73 381.5 L 551.29 381.5 L 552.86 381.5 L 554.42 381.5 L 555.98 381.5 L 557.54 381.5 L 559.11 381.5 L 560.67 381.5 L 562.23 381.5 " stroke="#000000" stroke-width="2" fill="none" stroke-dasharray="8 4" /><line x1="2140.6" y1="44" x2="2140.6" y2="449" stroke="#888888" stroke-width="0.8" stroke-dasharray="6 4" /><text x="2144.6" y="56" font-size="12" text-anchor="start">r = l</text><rect x="588" y="34" width="103" height="56" fill="#ffffff" /><rect x="588" y="34" width="103" height="56" fill="none" stroke="#000000" stroke-width="1" /><text x="618" y="53.2" font-size="12" text-anchor="start">Mean</text><line x1="598" y1="49" x2="610" y2="49" stroke="#4682b4" stroke-width="2" /><text x="618" y="71.2" font-size="12" text-anchor="start">Analytic</text><line x1="598" y1="67" x2="610" y2="67" stroke="#000000" stroke-width="2" stroke-dasharray="8 4" /></svg>