<svg xmlns="http://www.w3.org/2000/svg" width="700" height="500" font-family="DejaVu Sans, Liberation Sans, Arial, sans-serif" fill="black"><rect width="100%" height="100%" fill="white" /><line x1="59" y1="449" x2="583" y2="449" stroke="#000000" stroke-width="1" /><line x1="59" y1="44" x2="59" y2="449" stroke="#000000" stroke-width="1" /><line x1="163.8" y1="44" x2="163.8" y2="449" stroke="#cccccc" stroke-width="1" /><line x1="268.6" y1="44" x2="268.6" y2="449" stroke="#cccccc" stroke-width="1" /><line x1="373.40000000000003" y1="44" x2="373.40000000000003" y2="449" stroke="#cccccc" stroke-width="1" /><line x1="478.2" y1="44" x2="478.2" y2="449" stroke="#cccccc" stroke-width="1" /><line x1="583" y1="44" x2="583" y2="449" stroke="#cccccc" stroke-width="1" /><line x1="59" y1="275.43" x2="583" y2="275.43" stroke="#cccccc" stroke-width="1" /><line x1="59" y1="159.71" x2="583" y2="159.71" stroke="#cccccc" stroke-width="1" /><line x1="59" y1="44" x2="583" y2="44" stroke="#cccccc" stroke-width="1" /><line x1="59" y1="449" x2="59" y2="454" stroke="#000000" stroke-width="1" /><text x="59" y="466" font-size="12" text-anchor="middle">0</text><line x1="163.8" y1="449" x2="163.8" y2="454" stroke="#000000" stroke-width="1" /><text x="163.8" y="466" font-size="12" text-anchor="middle">10</text><line x1="268.6" y1="449" x2="268.6" y2="454" stroke="#000000" stroke-width="1" /><text x="268.6" y="466" font-size="12" text-anchor="middle">20</text><line x1="373.40000000000003" y1="449" x2="373.40000000000003" y2="454" stroke="#000000" stroke-width="1" /><text x="373.40000000000003" y="466" font-size="12" text-anchor="middle">30</text><line x1="478.2" y1="449" x2="478.2" y2="454" stroke="#000000" stroke-width="1" /><text x="478.2" y="466" font-size="12" text-anchor="middle">40</text><line x1="583" y1="449" x2="583" y2="454" stroke="#000000" stroke-width="1" /><text x="583" y="466" font-size="12" text-anchor="middle">50</text><line x1="54" y1="391.14" x2="59" y2="391.14" stroke="#000000" stroke-width="1" /><text x="51" y="395.34000000000003" font-size="12" text-anchor="end">-50</text><line x1="54" y1="275.43" x2="59" y2="275.43" stroke="#000000" stroke-width="1" /><text x="51" y="279.63" font-size="12" text-anchor="end">0</text><line x1="54" y1="159.71" x2="59" y2="159.71" stroke="#000000" stroke-width="1" /><text x="51" y="163.91" font-size="12" text-anchor="end">50</text><line x1="54" y1="44" x2="59" y2="44" stroke="#000000" stroke-width="1" /><text x="51" y="48.2" font-size="12" text-anchor="end">100</text><text x="321" y="493" font-size="14" text-anchor="middle">r  [h^-1 Mpc]</text><text x="15" y="250" font-size="14" text-anchor="middle" transform="rotate(-90,15,250)">r^2 xi(r)  [h^-2 Mpc^2]</text><text x="321" y="22" font-size="18" text-anchor="middle">CoxMock: r^2 xi(r)</text><path d="M 98.3 238.9 L 114.02 220.0 L 129.74 235.88 L 145.46 222.12 L 161.18 205.70000000000002 L 176.9 227.17000000000002 L 192.62 213.99 L 208.34 222.59 L 224.06 158.13 L 239.78 231.26 L 255.5 185.11 L 271.22 194.46 L 286.94 213.45000000000002 L 302.66 166.55 L 318.38 161.31 L 334.1 206.58 L 349.82 164.57 L 365.54 208.47 L 381.26 215.69 L 396.98 192.34 L 412.7 275.09000000000003 L 428.42 180.67000000000002 L 444.14 194.48000000000002 L 459.86 123.06 L 475.58 87.22 L 491.3 210.72 L 507.02000000000004 186.3 L 522.74 71.97 L 538.46 168.23 L 554.1800000000001 147.81 L 554.1800000000001 410.22 L 538.46 319.79 L 522.74 354.44 L 507.02000000000004 366.76 L 491.3 404.03000000000003 L 475.58 317.09000000000003 L 459.86 271.4 L 444.14 359.73 L 428.42 345.11 L 412.7 387.15000000000003 L 396.98 277.39 L 381.26 328.21 L 365.54 359.01 L 349.82 337.7 L 334.1 261.6 L 318.38 324.22 L 302.66 318.02 L 286.94 325.35 L 271.22 260.11 L 255.5 268.53000000000003 L 239.78 252.06 L 224.06 257.14 L 208.34 293.12 L 192.62 268.78000000000003 L 176.9 256.31 L 161.18 291.17 L 145.46 277.41 L 129.74 263.98 L 114.02 266.62 L 98.3 262.74 Z" stroke="none" stroke-width="0" fill="#4682b4" fill-opacity="0.2" /><path d="M 98.3 250.82 L 114.02 243.31 L 129.74 249.93 L 145.46 249.76000000000002 L 161.18 248.43 L 176.9 241.74 L 192.62 241.38 L 208.34 257.85 L 224.06 207.63 L 239.78 241.66 L 255.5 226.82 L 271.22 227.29 L 286.94 269.4 L 302.66 242.29 L 318.38 242.76 L 334.1 234.09 L 349.82 251.13 L 365.54 283.74 L 381.26 271.95 L 396.98 234.86 L 412.7 331.12 L 428.42 262.89 L 444.14 277.1 L 459.86 197.23000000000002 L 475.58 202.15 L 491.3 307.38 L 507.02000000000004 276.53000000000003 L 522.74 213.21 L 538.46 244.01 L 554.1800000000001 279.01 " stroke="#4682b4" stroke-width="2" fill="none" /><path d="M 90.44 275.43 L 92.02 275.43 L 93.59 275.43 L 95.17 275.43 L 96.75 275.43 L 98.33 275.43 L 99.9 275.43 L 101.48 275.43 L 103.06 275.43 L 104.64 275.43 L 106.21000000000001 275.43 L 107.79 275.43 L 109.37 275.43 L 110.94 275.43 L 112.52 275.43 L 114.10000000000001 275.43 L 115.68 275.43 L 117.25 275.43 L 118.83 275.43 L 120.41 275.43 L 121.99000000000001 275.43 L 123.56 275.43 L 125.14 275.43 L 126.72 275.43 L 128.29 275.43 L 129.87 275.43 L 131.45 275.43 L 133.03 275.43 L 134.6 275.43 L 136.18 275.43 L 137.76 275.43 L 139.33 275.43 L 140.91 275.43 L 142.49 275.43 L 144.07 275.43 L 145.64000000000001 275.43 L 147.22 275.43 L 148.8 275.43 L 150.38 275.43 L 151.95000000000002 275.43 L 153.53 275.43 L 155.11 275.43 L 156.68 275.43 L 158.26 275.43 L 159.84 275.43 L 161.42000000000002 275.43 L 162.99 275.43 L 164.57 275.43 L 166.15 275.43 L 167.73 275.43 L 169.3 275.43 L 170.88 275.43 L 172.46 275.43 L 174.03 275.43 L 175.61 275.43 L 177.19 275.43 L 178.77 275.43 L 180.34 275.43 L 181.92000000000002 275.43 L 183.5 275.43 L 185.08 275.43 L 186.65 275.43 L 188.23 275.43 L 189.81 275.43 L 191.38 275.43 L 192.96 275.43 L 194.54 275.43 L 196.12 275.43 L 197.69 275.43 L 199.27 275.43 L 200.85 275.43 L 202.43 275.43 L 204.0 275.43 L 205.58 275.43 L 207.16 275.43 L 208.73000000000002 275.43 L 210.31 275.43 L 211.89000000000001 275.43 L 213.47 275.43 L 215.04 275.43 L 216.62 275.43 L 218.20000000000002 275.43 L 219.78 275.43 L 221.35 275.43 L 222.93 275.43 L 224.51 275.43 L 226.08 275.43 L 227.66 275.43 L 229.24 275.43 L 230.82 275.43 L 232.39000000000001 275.43 L 233.97 275.43 L 235.55 275.43 L 237.12 275.43 L 238.70000000000002 275.43 L 240.28 275.43 L 241.86 275.43 L 243.43 275.43 L 245.01 275.43 L 246.59 275.43 L 248.17000000000002 275.43 L 249.74 275.43 L 251.32 275.43 L 252.9 275.43 L 254.47 275.43 L 256.05 275.43 L 257.63 275.43 L 259.21 275.43 L 260.78000000000003 275.43 L 262.36 275.43 L 263.94 275.43 L 265.52 275.43 L 267.09000000000003 275.43 L 268.67 275.43 L 270.25 275.43 L 271.82 275.43 L 273.40000000000003 275.43 L 274.98 275.43 L 276.56 275.43 L 278.13 275.43 L 279.71 275.43 L 281.29 275.43 L 282.87 275.43 L 284.44 275.43 L 286.02 275.43 L 287.6 275.43 L 289.17 275.43 L 290.75 275.43 L 292.33 275.43 L 293.91 275.43 L 295.48 275.43 L 297.06 275.43 L 298.64 275.43 L 300.22 275.43 L 301.79 275.43 L 303.37 275.43 L 304.95 275.43 L 306.52 275.43 L 308.1 275.43 L 309.68 275.43 L 311.26 275.43 L 312.83 275.43 L 314.41 275.43 L 315.99 275.43 L 317.57 275.43 L 319.14 275.43 L 320.72 275.43 L 322.3 275.43 L 323.87 275.43 L 325.45 275.43 L 327.03000000000003 275.43 L 328.61 275.43 L 330.18 275.43 L 331.76 275.43 L 333.34000000000003 275.43 L 334.91 275.43 L 336.49 275.43 L 338.07 275.43 L 339.65000000000003 275.43 L 341.22 275.43 L 342.8 275.43 L 344.38 275.43 L 345.96 275.43 L 347.53000000000003 275.43 L 349.11 275.43 L 350.69 275.43 L 352.26 275.43 L 353.84000000000003 275.43 L 355.42 275.43 L 357.0 275.43 L 358.57 275.43 L 360.15000000000003 275.43 L 361.73 275.43 L 363.31 275.43 L 364.88 275.43 L 366.46 275.43 L 368.04 275.43 L 369.61 275.43 L 371.19 275.43 L 372.77 275.43 L 374.35 275.43 L 375.92 275.43 L 377.5 275.43 L 379.08 275.43 L 380.66 275.43 L 382.23 275.43 L 383.81 275.43 L 385.39 275.43 L 386.96000000000004 275.43 L 388.54 275.43 L 390.12 275.43 L 391.7 275.43 L 393.27 275.43 L 394.85 275.43 L 396.43 275.43 L 398.01 275.43 L 399.58 275.43 L 401.16 275.43 L 402.74 275.43 L 404.31 275.43 L 405.89 275.43 L 407.47 275.43 L 409.05 275.43 L 410.62 275.43 L 412.2 275.43 L 413.78000000000003 275.43 L 415.36 275.43 L 416.93 275.43 L 418.51 275.43 L 420.09000000000003 275.43 L 421.66 275.43 L 423.24 275.43 L 424.82 275.43 L 426.40000000000003 275.43 L 427.97 275.43 L 429.55 275.43 L 431.13 275.43 L 432.7 275.43 L 434.28000000000003 275.43 L 435.86 275.43 L 437.44 275.43 L 439.01 275.43 L 440.59000000000003 275.43 L 442.17 275.43 L 443.75 275.43 L 445.32 275.43 L 446.90000000000003 275.43 L 448.48 275.43 L 450.05 275.43 L 451.63 275.43 L 453.21000000000004 275.43 L 454.79 275.43 L 456.36 275.43 L 457.94 275.43 L 459.52 275.43 L 461.1 275.43 L 462.67 275.43 L 464.25 275.43 L 465.83 275.43 L 467.40000000000003 275.43 L 468.98 275.43 L 470.56 275.43 L 472.14 275.43 L 473.71000000000004 275.43 L 475.29 275.43 L 476.87 275.43 L 478.45 275.43 L 480.02 275.43 L 481.6 275.43 L 483.18 275.43 L 484.75 275.43 L 486.33 275.43 L 487.91 275.43 L 489.49 275.43 L 491.06 275.43 L 492.64 275.43 L 494.22 275.43 L 495.8 275.43 L 497.37 275.43 L 498.95 275.43 L 500.53000000000003 275.43 L 502.1 275.43 L 503.68 275.43 L 505.26 275.43 L 506.84000000000003 275.43 L 508.41 275.43 L 509.99 275.43 L 511.57 275.43 L 513.15 275.43 L 514.72 275.43 L 516.3 275.43 L 517.88 275.43 L 519.45 275.43 L 521.03 275.43 L 522.61 275.43 L 524.19 275.43 L 525.76 275.43 L 527.34 275.43 L 528.92 275.43 L 530.49 275.43 L 532.07 275.43 L 533.65 275.43 L 535.23 275.43 L 536.8 275.43 L 538.38 275.43 L 539.96 275.43 L 541.54 275.43 L 543.11 275.43 L 544.69 275.43 L 546.27 275.43 L 547.84 275.43 L 549.42 275.43 L 551.0 275.43 L 552.58 275.43 L 554.15 275.43 L 555.73 275.43 L 557.3100000000001 275.43 L 558.89 275.43 L 560.46 275.43 L 562.04 275.43 " stroke="#000000" stroke-width="1.5" fill="none" stroke-dasharray="8 4" /><line x1="2155" y1="44" x2="2155" y2="449" stroke="#888888" stroke-width="0.8" stroke-dasharray="6 4" /><text x="2159" y="56" font-size="12" text-anchor="start">r = l</text><rect x="588" y="34" width="103" height="56" fill="#ffffff" /><rect x="588" y="34" width="103" height="56" fill="none" stroke="#000000" stroke-width="1" /><text x="618" y="53.2" font-size="12" text-anchor="start">kNN LS</text><line x1="598" y1="49" x2="610" y2="49" stroke="#4682b4" stroke-width="2" /><text x="618" y="71.2" font-size="12" text-anchor="start">Analytic</text><line x1="598" y1="67" x2="610" y2="67" stroke="#000000" stroke-width="2" stroke-dasharray="8 4" /></svg>