<svg xmlns="http://www.w3.org/2000/svg" width="700" height="400" font-family="DejaVu Sans, Liberation Sans, Arial, sans-serif" fill="black"><rect width="100%" height="100%" fill="white" /><line x1="59" y1="349" x2="379" y2="349" stroke="#000000" stroke-width="1" /><line x1="59" y1="44" x2="59" y2="349" stroke="#000000" stroke-width="1" /><line x1="123" y1="44" x2="123" y2="349" stroke="#cccccc" stroke-width="1" /><line x1="187" y1="44" x2="187" y2="349" stroke="#cccccc" stroke-width="1" /><line x1="251" y1="44" x2="251" y2="349" stroke="#cccccc" stroke-width="1" /><line x1="315" y1="44" x2="315" y2="349" stroke="#cccccc" stroke-width="1" /><line x1="379" y1="44" x2="379" y2="349" stroke="#cccccc" stroke-width="1" /><line x1="59" y1="247.33" x2="379" y2="247.33" stroke="#cccccc" stroke-width="1" /><line x1="59" y1="183.79" x2="379" y2="183.79" stroke="#cccccc" stroke-width="1" /><line x1="59" y1="120.25" x2="379" y2="120.25" stroke="#cccccc" stroke-width="1" /><line x1="59" y1="56.71" x2="379" y2="56.71" stroke="#cccccc" stroke-width="1" /><line x1="59" y1="349" x2="59" y2="354" stroke="#000000" stroke-width="1" /><text x="59" y="366" font-size="12" text-anchor="middle">0</text><line x1="123" y1="349" x2="123" y2="354" stroke="#000000" stroke-width="1" /><text x="123" y="366" font-size="12" text-anchor="middle">10</text><line x1="187" y1="349" x2="187" y2="354" stroke="#000000" stroke-width="1" /><text x="187" y="366" font-size="12" text-anchor="middle">20</text><line x1="251" y1="349" x2="251" y2="354" stroke="#000000" stroke-width="1" /><text x="251" y="366" font-size="12" text-anchor="middle">30</text><line x1="315" y1="349" x2="315" y2="354" stroke="#000000" stroke-width="1" /><text x="315" y="366" font-size="12" text-anchor="middle">40</text><line x1="379" y1="349" x2="379" y2="354" stroke="#000000" stroke-width="1" /><text x="379" y="366" font-size="12" text-anchor="middle">50</text><line x1="54" y1="310.88" x2="59" y2="310.88" stroke="#000000" stroke-width="1" /><text x="51" y="315.08" font-size="12" text-anchor="end">-2.5</text><line x1="54" y1="247.33" x2="59" y2="247.33" stroke="#000000" stroke-width="1" /><text x="51" y="251.53" font-size="12" text-anchor="end">0</text><line x1="54" y1="183.79" x2="59" y2="183.79" stroke="#000000" stroke-width="1" /><text x="51" y="187.99" font-size="12" text-anchor="end">2.5</text><line x1="54" y1="120.25" x2="59" y2="120.25" stroke="#000000" stroke-width="1" /><text x="51" y="124.45" font-size="12" text-anchor="end">5</text><line x1="54" y1="56.71" x2="59" y2="56.71" stroke="#000000" stroke-width="1" /><text x="51" y="60.910000000000004" font-size="12" text-anchor="end">7.5</text><text x="219" y="393" font-size="14" text-anchor="middle">r  [h^-1 Mpc]</text><text x="15" y="200" font-size="14" text-anchor="middle" transform="rotate(-90,15,200)">bias / sigma_mean</text><text x="219" y="22" font-size="18" text-anchor="middle">Estimator Bias</text><circle cx="83" cy="129.96" r="4.5" fill="#4682b4" /><circle cx="92.60000000000001" cy="169.01" r="4.5" fill="#4682b4" /><circle cx="102.2" cy="144.20000000000002" r="4.5" fill="#4682b4" /><circle cx="111.8" cy="194.57" r="4.5" fill="#4682b4" /><circle cx="121.4" cy="211.43" r="4.5" fill="#4682b4" /><circle cx="131" cy="115.92" r="4.5" fill="#4682b4" /><circle cx="140.6" cy="176.71" r="4.5" fill="#4682b4" /><circle cx="150.20000000000002" cy="219.01" r="4.5" fill="#4682b4" /><circle cx="159.8" cy="169.5" r="4.5" fill="#4682b4" /><circle cx="169.4" cy="62.79" r="4.5" fill="#4682b4" /><circle cx="179" cy="181.09" r="4.5" fill="#4682b4" /><circle cx="188.6" cy="163.98" r="4.5" fill="#4682b4" /><circle cx="198.20000000000002" cy="241.21" r="4.5" fill="#4682b4" /><circle cx="207.8" cy="222.46" r="4.5" fill="#4682b4" /><circle cx="217.4" cy="224.54" r="4.5" fill="#4682b4" /><circle cx="227" cy="161.94" r="4.5" fill="#4682b4" /><circle cx="236.6" cy="231.38" r="4.5" fill="#4682b4" /><circle cx="246.20000000000002" cy="253.61" r="4.5" fill="#4682b4" /><circle cx="255.8" cy="243.82" r="4.5" fill="#4682b4" /><circle cx="265.4" cy="193.12" r="4.5" fill="#4682b4" /><circle cx="275" cy="303.83" r="4.5" fill="#4682b4" /><circle cx="284.6" cy="238.67000000000002" r="4.5" fill="#4682b4" /><circle cx="294.2" cy="248.49" r="4.5" fill="#4682b4" /><circle cx="303.8" cy="187.41" r="4.5" fill="#4682b4" /><circle cx="313.40000000000003" cy="211.1" r="4.5" fill="#4682b4" /><circle cx="323" cy="266.12" r="4.5" fill="#4682b4" /><circle cx="332.6" cy="248.03" r="4.5" fill="#4682b4" /><circle cx="342.2" cy="222.3" r="4.5" fill="#4682b4" /><circle cx="351.8" cy="223.77" r="4.5" fill="#4682b4" /><circle cx="361.40000000000003" cy="248.89000000000001" r="4.5" fill="#4682b4" /><line x1="59" y1="247.33" x2="379" y2="247.33" stroke="#000000" stroke-width="1" stroke-dasharray="4 3" /><line x1="59" y1="196.5" x2="379" y2="196.5" stroke="#dc143c" stroke-width="0.7000000000000001" stroke-dasharray="6 4" /><text x="375" y="192.5" font-size="12" text-anchor="end">+2sigma</text><line x1="59" y1="298.17" x2="379" y2="298.17" stroke="#dc143c" stroke-width="0.7000000000000001" stroke-dasharray="6 4" /><text x="375" y="294.17" font-size="12" text-anchor="end">-2sigma</text><rect x="384" y="34" width="307" height="38" fill="#ffffff" /><rect x="384" y="34" width="307" height="38" fill="none" stroke="#000000" stroke-width="1" /><text x="414" y="53.2" font-size="12" text-anchor="start">(xi_mean - xi_true) / sigma_mean</text><circle cx="399" cy="49" r="5" fill="#4682b4" /></svg>