<svg xmlns="http://www.w3.org/2000/svg" width="700" height="500" font-family="DejaVu Sans, Liberation Sans, Arial, sans-serif" fill="black"><rect width="100%" height="100%" fill="white" /><line x1="63.800000000000004" y1="449" x2="464" y2="449" stroke="#000000" stroke-width="1" /><line x1="63.800000000000004" y1="44" x2="63.800000000000004" y2="449" stroke="#000000" stroke-width="1" /><line x1="143.84" y1="44" x2="143.84" y2="449" stroke="#cccccc" stroke-width="1" /><line x1="223.88" y1="44" x2="223.88" y2="449" stroke="#cccccc" stroke-width="1" /><line x1="303.92" y1="44" x2="303.92" y2="449" stroke="#cccccc" stroke-width="1" /><line x1="383.96000000000004" y1="44" x2="383.96000000000004" y2="449" stroke="#cccccc" stroke-width="1" /><line x1="464" y1="44" x2="464" y2="449" stroke="#cccccc" stroke-width="1" /><line x1="63.800000000000004" y1="381.5" x2="464" y2="381.5" stroke="#cccccc" stroke-width="1" /><line x1="63.800000000000004" y1="314" x2="464" y2="314" stroke="#cccccc" stroke-width="1" /><line x1="63.800000000000004" y1="246.5" x2="464" y2="246.5" stroke="#cccccc" stroke-width="1" /><line x1="63.800000000000004" y1="179" x2="464" y2="179" stroke="#cccccc" stroke-width="1" /><line x1="63.800000000000004" y1="111.5" x2="464" y2="111.5" stroke="#cccccc" stroke-width="1" /><line x1="63.800000000000004" y1="44" x2="464" y2="44" stroke="#cccccc" stroke-width="1" /><line x1="63.800000000000004" y1="449" x2="63.800000000000004" y2="454" stroke="#000000" stroke-width="1" /><text x="63.800000000000004" y="466" font-size="12" text-anchor="middle">0</text><line x1="143.84" y1="449" x2="143.84" y2="454" stroke="#000000" stroke-width="1" /><text x="143.84" y="466" font-size="12" text-anchor="middle">10</text><line x1="223.88" y1="449" x2="223.88" y2="454" stroke="#000000" stroke-width="1" /><text x="223.88" y="466" font-size="12" text-anchor="middle">20</text><line x1="303.92" y1="449" x2="303.92" y2="454" stroke="#000000" stroke-width="1" /><text x="303.92" y="466" font-size="12" text-anchor="middle">30</text><line x1="383.96000000000004" y1="449" x2="383.96000000000004" y2="454" stroke="#000000" stroke-width="1" /><text x="383.96000000000004" y="466" font-size="12" text-anchor="middle">40</text><line x1="464" y1="449" x2="464" y2="454" stroke="#000000" stroke-width="1" /><text x="464" y="466" font-size="12" text-anchor="middle">50</text><line x1="58.800000000000004" y1="449" x2="63.800000000000004" y2="449" stroke="#000000" stroke-width="1" /><text x="55.800000000000004" y="453.2" font-size="12" text-anchor="end">-0.25</text><line x1="58.800000000000004" y1="381.5" x2="63.800000000000004" y2="381.5" stroke="#000000" stroke-width="1" /><text x="55.800000000000004" y="385.7" font-size="12" text-anchor="end">0</text><line x1="58.800000000000004" y1="314" x2="63.800000000000004" y2="314" stroke="#000000" stroke-width="1" /><text x="55.800000000000004" y="318.2" font-size="12" text-anchor="end">0.25</text><line x1="58.800000000000004" y1="246.5" x2="63.800000000000004" y2="246.5" stroke="#000000" stroke-width="1" /><text x="55.800000000000004" y="250.70000000000002" font-size="12" text-anchor="end">0.5</text><line x1="58.800000000000004" y1="179" x2="63.800000000000004" y2="179" stroke="#000000" stroke-width="1" /><text x="55.800000000000004" y="183.20000000000002" font-size="12" text-anchor="end">0.75</text><line x1="58.800000000000004" y1="111.5" x2="63.800000000000004" y2="111.5" stroke="#000000" stroke-width="1" /><text x="55.800000000000004" y="115.7" font-size="12" text-anchor="end">1</text><line x1="58.800000000000004" y1="44" x2="63.800000000000004" y2="44" stroke="#000000" stroke-width="1" /><text x="55.800000000000004" y="48.2" font-size="12" text-anchor="end">1.25</text><text x="263.9" y="493" font-size="14" text-anchor="middle">r  [h^-1 Mpc]</text><text x="15" y="250" font-size="14" text-anchor="middle" transform="rotate(-90,15,250)">xi(r)</text><text x="263.9" y="22" font-size="18" text-anchor="middle">CoxMock: xi(r) Recovery</text><path d="M 93.82000000000001 78.45 L 105.82000000000001 146.89000000000001 L 117.83 280.25 L 129.83 290.12 L 141.84 295.93 L 153.85 337.02 L 165.85 337.41 L 177.86 351.14 L 189.86 326.33 L 201.87 364.18 L 213.88 351.53000000000003 L 225.88 358.46 L 237.89000000000001 366.21 L 249.89000000000001 358.0 L 261.9 359.77 L 273.91 369.84000000000003 L 285.91 364.7 L 297.92 372.37 L 309.92 374.13 L 321.93 372.18 L 333.94 381.47 L 345.94 372.6 L 357.95 374.51 L 369.95 369.35 L 381.96 367.6 L 393.97 377.06 L 405.97 375.81 L 417.98 369.38 L 429.98 375.52 L 441.99 374.83 L 441.99 388.54 L 429.98 383.97 L 417.98 386.21000000000004 L 405.97 387.33 L 393.97 390.32 L 381.96 384.58 L 369.95 381.18 L 357.95 388.78000000000003 L 345.94 388.04 L 333.94 392.94 L 321.93 381.72 L 309.92 388.01 L 297.92 392.90000000000003 L 285.91 390.93 L 273.91 379.16 L 261.9 390.79 L 249.89000000000001 390.69 L 237.89000000000001 393.81 L 225.88 377.14 L 213.88 379.21 L 201.87 372.34000000000003 L 189.86 372.90000000000003 L 177.86 391.66 L 165.85 376.73 L 153.85 363.88 L 141.84 400.82 L 129.83 384.89 L 117.83 352.19 L 105.82000000000001 344.2 L 93.82000000000001 276.19 Z" stroke="none" stroke-width="0" fill="#4682b4" fill-opacity="0.2" /><path d="M 93.82000000000001 177.32 L 105.82000000000001 245.54 L 117.83 316.22 L 129.83 337.51 L 141.84 348.37 L 153.85 350.45 L 165.85 357.07 L 177.86 371.40000000000003 L 189.86 349.61 L 201.87 368.26 L 213.88 365.37 L 225.88 367.8 L 237.89000000000001 380.01 L 249.89000000000001 374.35 L 261.9 375.28000000000003 L 273.91 374.5 L 285.91 377.82 L 297.92 382.63 L 309.92 381.07 L 321.93 376.95 L 333.94 387.2 L 345.94 380.32 L 357.95 381.64 L 369.95 375.26 L 381.96 376.09000000000003 L 393.97 383.69 L 405.97 381.57 L 417.98 377.79 L 429.98 379.75 L 441.99 381.69 " stroke="#4682b4" stroke-width="2" fill="none" /><path d="M 87.81 381.5 L 89.02 381.5 L 90.22 381.5 L 91.43 381.5 L 92.63 381.5 L 93.84 381.5 L 95.04 381.5 L 96.24000000000001 381.5 L 97.45 381.5 L 98.65 381.5 L 99.86 381.5 L 101.06 381.5 L 102.27 381.5 L 103.47 381.5 L 104.68 381.5 L 105.88 381.5 L 107.09 381.5 L 108.29 381.5 L 109.5 381.5 L 110.7 381.5 L 111.9 381.5 L 113.11 381.5 L 114.31 381.5 L 115.52 381.5 L 116.72 381.5 L 117.93 381.5 L 119.13 381.5 L 120.34 381.5 L 121.54 381.5 L 122.75 381.5 L 123.95 381.5 L 125.16 381.5 L 126.36 381.5 L 127.56 381.5 L 128.77 381.5 L 129.97 381.5 L 131.18 381.5 L 132.38 381.5 L 133.59 381.5 L 134.79 381.5 L 136.0 381.5 L 137.20000000000002 381.5 L 138.41 381.5 L 139.61 381.5 L 140.82 381.5 L 142.02 381.5 L 143.22 381.5 L 144.43 381.5 L 145.63 381.5 L 146.84 381.5 L 148.04 381.5 L 149.25 381.5 L 150.45000000000002 381.5 L 151.66 381.5 L 152.86 381.5 L 154.07 381.5 L 155.27 381.5 L 156.48 381.5 L 157.68 381.5 L 158.88 381.5 L 160.09 381.5 L 161.29 381.5 L 162.5 381.5 L 163.70000000000002 381.5 L 164.91 381.5 L 166.11 381.5 L 167.32 381.5 L 168.52 381.5 L 169.73 381.5 L 170.93 381.5 L 172.14000000000001 381.5 L 173.34 381.5 L 174.54 381.5 L 175.75 381.5 L 176.95000000000002 381.5 L 178.16 381.5 L 179.36 381.5 L 180.57 381.5 L 181.77 381.5 L 182.98 381.5 L 184.18 381.5 L 185.39000000000001 381.5 L 186.59 381.5 L 187.8 381.5 L 189.0 381.5 L 190.20000000000002 381.5 L 191.41 381.5 L 192.61 381.5 L 193.82 381.5 L 195.02 381.5 L 196.23000000000002 381.5 L 197.43 381.5 L 198.64000000000001 381.5 L 199.84 381.5 L 201.05 381.5 L 202.25 381.5 L 203.46 381.5 L 204.66 381.5 L 205.86 381.5 L 207.07 381.5 L 208.27 381.5 L 209.48000000000002 381.5 L 210.68 381.5 L 211.89000000000001 381.5 L 213.09 381.5 L 214.3 381.5 L 215.5 381.5 L 216.71 381.5 L 217.91 381.5 L 219.12 381.5 L 220.32 381.5 L 221.52 381.5 L 222.73000000000002 381.5 L 223.93 381.5 L 225.14000000000001 381.5 L 226.34 381.5 L 227.55 381.5 L 228.75 381.5 L 229.96 381.5 L 231.16 381.5 L 232.37 381.5 L 233.57 381.5 L 234.78 381.5 L 235.98000000000002 381.5 L 237.18 381.5 L 238.39000000000001 381.5 L 239.59 381.5 L 240.8 381.5 L 242.0 381.5 L 243.21 381.5 L 244.41 381.5 L 245.62 381.5 L 246.82 381.5 L 248.03 381.5 L 249.23000000000002 381.5 L 250.44 381.5 L 251.64000000000001 381.5 L 252.84 381.5 L 254.05 381.5 L 255.25 381.5 L 256.46 381.5 L 257.66 381.5 L 258.87 381.5 L 260.07 381.5 L 261.28000000000003 381.5 L 262.48 381.5 L 263.69 381.5 L 264.89 381.5 L 266.1 381.5 L 267.3 381.5 L 268.5 381.5 L 269.71 381.5 L 270.91 381.5 L 272.12 381.5 L 273.32 381.5 L 274.53000000000003 381.5 L 275.73 381.5 L 276.94 381.5 L 278.14 381.5 L 279.35 381.5 L 280.55 381.5 L 281.76 381.5 L 282.96 381.5 L 284.16 381.5 L 285.37 381.5 L 286.57 381.5 L 287.78000000000003 381.5 L 288.98 381.5 L 290.19 381.5 L 291.39 381.5 L 292.6 381.5 L 293.8 381.5 L 295.01 381.5 L 296.21 381.5 L 297.42 381.5 L 298.62 381.5 L 299.82 381.5 L 301.03000000000003 381.5 L 302.23 381.5 L 303.44 381.5 L 304.64 381.5 L 305.85 381.5 L 307.05 381.5 L 308.26 381.5 L 309.46 381.5 L 310.67 381.5 L 311.87 381.5 L 313.08 381.5 L 314.28000000000003 381.5 L 315.48 381.5 L 316.69 381.5 L 317.89 381.5 L 319.1 381.5 L 320.3 381.5 L 321.51 381.5 L 322.71 381.5 L 323.92 381.5 L 325.12 381.5 L 326.33 381.5 L 327.53000000000003 381.5 L 328.74 381.5 L 329.94 381.5 L 331.14 381.5 L 332.35 381.5 L 333.55 381.5 L 334.76 381.5 L 335.96 381.5 L 337.17 381.5 L 338.37 381.5 L 339.58 381.5 L 340.78000000000003 381.5 L 341.99 381.5 L 343.19 381.5 L 344.40000000000003 381.5 L 345.6 381.5 L 346.8 381.5 L 348.01 381.5 L 349.21 381.5 L 350.42 381.5 L 351.62 381.5 L 352.83 381.5 L 354.03000000000003 381.5 L 355.24 381.5 L 356.44 381.5 L 357.65000000000003 381.5 L 358.85 381.5 L 360.06 381.5 L 361.26 381.5 L 362.46 381.5 L 363.67 381.5 L 364.87 381.5 L 366.08 381.5 L 367.28000000000003 381.5 L 368.49 381.5 L 369.69 381.5 L 370.90000000000003 381.5 L 372.1 381.5 L 373.31 381.5 L 374.51 381.5 L 375.72 381.5 L 376.92 381.5 L 378.12 381.5 L 379.33 381.5 L 380.53000000000003 381.5 L 381.74 381.5 L 382.94 381.5 L 384.15000000000003 381.5 L 385.35 381.5 L 386.56 381.5 L 387.76 381.5 L 388.97 381.5 L 390.17 381.5 L 391.38 381.5 L 392.58 381.5 L 393.78000000000003 381.5 L 394.99 381.5 L 396.19 381.5 L 397.40000000000003 381.5 L 398.6 381.5 L 399.81 381.5 L 401.01 381.5 L 402.22 381.5 L 403.42 381.5 L 404.63 381.5 L 405.83 381.5 L 407.04 381.5 L 408.24 381.5 L 409.44 381.5 L 410.65000000000003 381.5 L 411.85 381.5 L 413.06 381.5 L 414.26 381.5 L 415.47 381.5 L 416.67 381.5 L 417.88 381.5 L 419.08 381.5 L 420.29 381.5 L 421.49 381.5 L 422.7 381.5 L 423.90000000000003 381.5 L 425.1 381.5 L 426.31 381.5 L 427.51 381.5 L 428.72 381.5 L 429.92 381.5 L 431.13 381.5 L 432.33 381.5 L 433.54 381.5 L 434.74 381.5 L 435.95 381.5 L 437.15000000000003 381.5 L 438.36 381.5 L 439.56 381.5 L 440.76 381.5 L 441.97 381.5 L 443.17 381.5 L 444.38 381.5 L 445.58 381.5 L 446.79 381.5 L 447.99 381.5 " stroke="#000000" stroke-width="1.5" fill="none" stroke-dasharray="8 4" /><line x1="1664.6000000000001" y1="44" x2="1664.6000000000001" y2="449" stroke="#888888" stroke-width="0.8" stroke-dasharray="6 4" /><text x="1668.6000000000001" y="56" font-size="12" text-anchor="start">r = l</text><rect x="469" y="34" width="222" height="56" fill="#ffffff" /><rect x="469" y="34" width="222" height="56" fill="none" stroke="#000000" stroke-width="1" /><text x="499" y="53.2" font-size="12" text-anchor="start">kNN LS mean +/- 1sigma</text><line x1="479" y1="49" x2="491" y2="49" stroke="#4682b4" stroke-width="2" /><text x="499" y="71.2" font-size="12" text-anchor="start">Analytic xi(r)</text><line x1="479" y1="67" x2="491" y2="67" stroke="#000000" stroke-width="2" stroke-dasharray="8 4" /></svg>